<svg width="1545" height="949" viewBox="0 0 1545 949" fill="none" xmlns="http://www.w3.org/2000/svg">
<rect width="1545" height="949" rx="36" fill="#F8F8F8"/>
<rect width="1545" height="74" fill="#D9D9D9"/>
<circle cx="1504.5" cy="36.5" r="10.5" fill="#FF5454"/>
<circle cx="1474.5" cy="36.5" r="10.5" fill="#B9DB34"/>
<circle cx="1444.5" cy="36.5" r="10.5" fill="#A6A912"/>
<path d="M64.7965 122.545H69.4574L77.5611 142.332H77.8594L85.9631 122.545H90.6239V148H86.9698V129.58H86.7337L79.2266 147.963H76.1939L68.6868 129.568H68.4506V148H64.7965V122.545ZM95.9094 148V128.909H99.6256V148H95.9094ZM97.7861 125.963C97.1398 125.963 96.5847 125.748 96.1206 125.317C95.6649 124.878 95.4371 124.356 95.4371 123.751C95.4371 123.138 95.6649 122.616 96.1206 122.185C96.5847 121.746 97.1398 121.526 97.7861 121.526C98.4324 121.526 98.9835 121.746 99.4392 122.185C99.9032 122.616 100.135 123.138 100.135 123.751C100.135 124.356 99.9032 124.878 99.4392 125.317C98.9835 125.748 98.4324 125.963 97.7861 125.963ZM113.537 128.909V131.892H103.109V128.909H113.537ZM105.905 124.335H109.622V142.395C109.622 143.115 109.729 143.658 109.945 144.023C110.16 144.379 110.438 144.623 110.778 144.756C111.126 144.88 111.503 144.942 111.909 144.942C112.207 144.942 112.468 144.922 112.692 144.88C112.915 144.839 113.089 144.806 113.214 144.781L113.885 147.851C113.669 147.934 113.363 148.017 112.965 148.099C112.567 148.191 112.07 148.24 111.474 148.249C110.496 148.265 109.584 148.091 108.739 147.727C107.894 147.362 107.21 146.799 106.688 146.036C106.166 145.274 105.905 144.317 105.905 143.165V124.335ZM125.447 155.557C123.93 155.557 122.625 155.358 121.532 154.96C120.446 154.563 119.56 154.036 118.872 153.382C118.184 152.727 117.67 152.01 117.331 151.232L120.525 149.914C120.749 150.279 121.047 150.664 121.42 151.07C121.801 151.484 122.315 151.836 122.961 152.126C123.616 152.416 124.457 152.561 125.484 152.561C126.893 152.561 128.057 152.218 128.977 151.53C129.896 150.85 130.356 149.765 130.356 148.273V144.52H130.12C129.896 144.926 129.573 145.377 129.151 145.875C128.736 146.372 128.165 146.803 127.435 147.167C126.706 147.532 125.758 147.714 124.589 147.714C123.081 147.714 121.722 147.362 120.513 146.658C119.311 145.945 118.358 144.897 117.654 143.513C116.958 142.121 116.61 140.41 116.61 138.38C116.61 136.35 116.954 134.61 117.641 133.16C118.337 131.71 119.29 130.599 120.5 129.829C121.71 129.05 123.081 128.661 124.614 128.661C125.799 128.661 126.756 128.859 127.485 129.257C128.214 129.647 128.782 130.102 129.188 130.624C129.602 131.146 129.921 131.606 130.145 132.004H130.418V128.909H134.06V148.423C134.06 150.063 133.679 151.41 132.917 152.462C132.154 153.514 131.123 154.293 129.822 154.799C128.529 155.304 127.071 155.557 125.447 155.557ZM125.41 144.632C126.478 144.632 127.382 144.383 128.119 143.886C128.865 143.381 129.428 142.66 129.809 141.723C130.199 140.779 130.394 139.648 130.394 138.33C130.394 137.046 130.203 135.915 129.822 134.937C129.441 133.959 128.881 133.197 128.144 132.65C127.406 132.095 126.495 131.817 125.41 131.817C124.291 131.817 123.359 132.107 122.613 132.688C121.867 133.259 121.304 134.038 120.923 135.024C120.55 136.01 120.363 137.112 120.363 138.33C120.363 139.581 120.554 140.679 120.935 141.624C121.316 142.569 121.88 143.306 122.625 143.836C123.379 144.367 124.307 144.632 125.41 144.632ZM142.76 122.545V148H139.044V122.545H142.76ZM147.76 148V128.909H151.476V148H147.76ZM149.637 125.963C148.99 125.963 148.435 125.748 147.971 125.317C147.516 124.878 147.288 124.356 147.288 123.751C147.288 123.138 147.516 122.616 147.971 122.185C148.435 121.746 148.99 121.526 149.637 121.526C150.283 121.526 150.834 121.746 151.29 122.185C151.754 122.616 151.986 123.138 151.986 123.751C151.986 124.356 151.754 124.878 151.29 125.317C150.834 125.748 150.283 125.963 149.637 125.963ZM164.704 148.385C162.823 148.385 161.203 147.983 159.844 147.18C158.493 146.368 157.449 145.228 156.712 143.762C155.983 142.287 155.618 140.559 155.618 138.579C155.618 136.623 155.983 134.9 156.712 133.408C157.449 131.917 158.477 130.753 159.794 129.916C161.12 129.079 162.67 128.661 164.443 128.661C165.52 128.661 166.564 128.839 167.575 129.195C168.586 129.551 169.493 130.111 170.297 130.873C171.101 131.635 171.734 132.625 172.198 133.843C172.662 135.053 172.894 136.524 172.894 138.256V139.573H157.719V136.789H169.253C169.253 135.811 169.054 134.945 168.656 134.191C168.258 133.429 167.699 132.828 166.978 132.389C166.266 131.95 165.429 131.73 164.468 131.73C163.424 131.73 162.512 131.987 161.733 132.501C160.963 133.007 160.366 133.669 159.943 134.49C159.529 135.302 159.322 136.184 159.322 137.137V139.312C159.322 140.588 159.546 141.674 159.993 142.569C160.449 143.463 161.083 144.147 161.895 144.619C162.707 145.083 163.656 145.315 164.741 145.315C165.445 145.315 166.088 145.216 166.668 145.017C167.248 144.81 167.749 144.503 168.171 144.097C168.594 143.691 168.917 143.19 169.141 142.593L172.658 143.227C172.377 144.263 171.871 145.17 171.142 145.949C170.421 146.72 169.514 147.321 168.42 147.751C167.335 148.174 166.096 148.385 164.704 148.385ZM184.164 148.373C182.623 148.373 181.248 147.979 180.038 147.192C178.837 146.397 177.892 145.266 177.204 143.799C176.525 142.324 176.185 140.555 176.185 138.492C176.185 136.429 176.529 134.664 177.217 133.197C177.913 131.73 178.866 130.608 180.075 129.829C181.285 129.05 182.656 128.661 184.189 128.661C185.374 128.661 186.327 128.859 187.048 129.257C187.777 129.647 188.341 130.102 188.738 130.624C189.144 131.146 189.459 131.606 189.683 132.004H189.907V122.545H193.623V148H189.994V145.029H189.683C189.459 145.435 189.136 145.9 188.713 146.422C188.299 146.944 187.727 147.399 186.998 147.789C186.269 148.178 185.324 148.373 184.164 148.373ZM184.985 145.203C186.054 145.203 186.957 144.922 187.694 144.358C188.44 143.787 189.003 142.995 189.385 141.984C189.774 140.973 189.969 139.797 189.969 138.455C189.969 137.129 189.778 135.969 189.397 134.974C189.016 133.98 188.457 133.205 187.719 132.65C186.982 132.095 186.07 131.817 184.985 131.817C183.866 131.817 182.934 132.107 182.188 132.688C181.442 133.268 180.879 134.059 180.498 135.061C180.125 136.064 179.939 137.195 179.939 138.455C179.939 139.731 180.129 140.878 180.51 141.897C180.891 142.917 181.455 143.724 182.201 144.321C182.955 144.909 183.883 145.203 184.985 145.203ZM207.155 148.385C205.274 148.385 203.654 147.983 202.295 147.18C200.945 146.368 199.901 145.228 199.163 143.762C198.434 142.287 198.069 140.559 198.069 138.579C198.069 136.623 198.434 134.9 199.163 133.408C199.901 131.917 200.928 130.753 202.245 129.916C203.571 129.079 205.121 128.661 206.894 128.661C207.971 128.661 209.015 128.839 210.026 129.195C211.037 129.551 211.944 130.111 212.748 130.873C213.552 131.635 214.186 132.625 214.65 133.843C215.114 135.053 215.346 136.524 215.346 138.256V139.573H200.17V136.789H211.704C211.704 135.811 211.505 134.945 211.107 134.191C210.71 133.429 210.15 132.828 209.429 132.389C208.717 131.95 207.88 131.73 206.919 131.73C205.875 131.73 204.963 131.987 204.184 132.501C203.414 133.007 202.817 133.669 202.395 134.49C201.98 135.302 201.773 136.184 201.773 137.137V139.312C201.773 140.588 201.997 141.674 202.444 142.569C202.9 143.463 203.534 144.147 204.346 144.619C205.158 145.083 206.107 145.315 207.192 145.315C207.897 145.315 208.539 145.216 209.119 145.017C209.699 144.81 210.2 144.503 210.623 144.097C211.045 143.691 211.368 143.19 211.592 142.593L215.109 143.227C214.828 144.263 214.322 145.17 213.593 145.949C212.872 146.72 211.965 147.321 210.871 147.751C209.786 148.174 208.547 148.385 207.155 148.385ZM219.469 148V128.909H223.061V131.942H223.26C223.608 130.914 224.221 130.106 225.099 129.518C225.986 128.922 226.988 128.623 228.107 128.623C228.339 128.623 228.613 128.632 228.927 128.648C229.251 128.665 229.503 128.685 229.686 128.71V132.265C229.536 132.223 229.271 132.178 228.89 132.128C228.509 132.07 228.128 132.041 227.747 132.041C226.868 132.041 226.085 132.228 225.398 132.6C224.718 132.965 224.18 133.475 223.782 134.129C223.384 134.776 223.185 135.513 223.185 136.342V148H219.469ZM236.618 122.545V148H232.902V122.545H236.618ZM241.617 148V128.909H245.334V148H241.617ZM243.494 125.963C242.848 125.963 242.293 125.748 241.829 125.317C241.373 124.878 241.145 124.356 241.145 123.751C241.145 123.138 241.373 122.616 241.829 122.185C242.293 121.746 242.848 121.526 243.494 121.526C244.14 121.526 244.691 121.746 245.147 122.185C245.611 122.616 245.843 123.138 245.843 123.751C245.843 124.356 245.611 124.878 245.147 125.317C244.691 125.748 244.14 125.963 243.494 125.963ZM264.639 133.57L261.271 134.167C261.13 133.736 260.906 133.326 260.6 132.936C260.301 132.547 259.895 132.228 259.381 131.979C258.868 131.73 258.226 131.606 257.455 131.606C256.403 131.606 255.524 131.842 254.82 132.315C254.116 132.779 253.764 133.379 253.764 134.117C253.764 134.755 254 135.269 254.472 135.658C254.944 136.047 255.707 136.366 256.759 136.615L259.792 137.311C261.548 137.717 262.857 138.343 263.719 139.188C264.581 140.033 265.012 141.131 265.012 142.482C265.012 143.625 264.68 144.644 264.017 145.539C263.363 146.426 262.447 147.122 261.271 147.627C260.102 148.133 258.748 148.385 257.206 148.385C255.069 148.385 253.324 147.93 251.974 147.018C250.623 146.098 249.795 144.793 249.488 143.103L253.08 142.556C253.304 143.492 253.764 144.201 254.46 144.681C255.156 145.154 256.063 145.39 257.182 145.39C258.4 145.39 259.373 145.137 260.102 144.632C260.832 144.118 261.196 143.492 261.196 142.755C261.196 142.158 260.972 141.657 260.525 141.251C260.086 140.845 259.41 140.538 258.499 140.331L255.267 139.623C253.486 139.217 252.169 138.571 251.315 137.684C250.47 136.797 250.047 135.675 250.047 134.316C250.047 133.189 250.362 132.203 250.992 131.358C251.622 130.512 252.492 129.854 253.602 129.381C254.712 128.901 255.984 128.661 257.418 128.661C259.481 128.661 261.105 129.108 262.29 130.003C263.475 130.889 264.258 132.078 264.639 133.57ZM278.009 128.909V131.892H267.581V128.909H278.009ZM270.378 124.335H274.094V142.395C274.094 143.115 274.202 143.658 274.417 144.023C274.633 144.379 274.91 144.623 275.25 144.756C275.598 144.88 275.975 144.942 276.381 144.942C276.68 144.942 276.941 144.922 277.164 144.88C277.388 144.839 277.562 144.806 277.686 144.781L278.357 147.851C278.142 147.934 277.835 148.017 277.438 148.099C277.04 148.191 276.543 148.24 275.946 148.249C274.968 148.265 274.057 148.091 273.212 147.727C272.367 147.362 271.683 146.799 271.161 146.036C270.639 145.274 270.378 144.317 270.378 143.165V124.335ZM290.143 148.385C288.262 148.385 286.642 147.983 285.283 147.18C283.933 146.368 282.889 145.228 282.151 143.762C281.422 142.287 281.058 140.559 281.058 138.579C281.058 136.623 281.422 134.9 282.151 133.408C282.889 131.917 283.916 130.753 285.234 129.916C286.56 129.079 288.109 128.661 289.882 128.661C290.959 128.661 292.003 128.839 293.014 129.195C294.025 129.551 294.932 130.111 295.736 130.873C296.54 131.635 297.174 132.625 297.638 133.843C298.102 135.053 298.334 136.524 298.334 138.256V139.573H283.158V136.789H294.692C294.692 135.811 294.493 134.945 294.096 134.191C293.698 133.429 293.139 132.828 292.418 132.389C291.705 131.95 290.868 131.73 289.907 131.73C288.863 131.73 287.952 131.987 287.173 132.501C286.402 133.007 285.805 133.669 285.383 134.49C284.969 135.302 284.761 136.184 284.761 137.137V139.312C284.761 140.588 284.985 141.674 285.433 142.569C285.888 143.463 286.522 144.147 287.334 144.619C288.146 145.083 289.095 145.315 290.18 145.315C290.885 145.315 291.527 145.216 292.107 145.017C292.687 144.81 293.188 144.503 293.611 144.097C294.033 143.691 294.357 143.19 294.58 142.593L298.098 143.227C297.816 144.263 297.311 145.17 296.581 145.949C295.861 146.72 294.953 147.321 293.859 147.751C292.774 148.174 291.535 148.385 290.143 148.385Z" fill="black"/>
<rect x="62" y="173" width="599" height="55" rx="1" fill="white"/>
<path d="M83.9609 196.667C83.8738 195.894 83.5144 195.295 82.8828 194.87C82.2512 194.44 81.4562 194.225 80.4979 194.225C79.8118 194.225 79.2183 194.334 78.7173 194.551C78.2164 194.764 77.8271 195.058 77.5494 195.434C77.2771 195.804 77.141 196.226 77.141 196.7C77.141 197.097 77.2335 197.44 77.4187 197.729C77.6093 198.017 77.857 198.26 78.1619 198.456C78.4723 198.646 78.8045 198.807 79.1584 198.938C79.5123 199.063 79.8526 199.166 80.1793 199.248L81.8129 199.673C82.3465 199.803 82.8937 199.98 83.4545 200.203C84.0154 200.427 84.5354 200.721 85.0146 201.086C85.4937 201.45 85.8803 201.902 86.1744 202.441C86.4738 202.98 86.6236 203.626 86.6236 204.377C86.6236 205.325 86.3786 206.166 85.8885 206.901C85.4039 207.636 84.6987 208.216 83.7731 208.641C82.8529 209.065 81.7393 209.278 80.4325 209.278C79.1802 209.278 78.0966 209.079 77.1818 208.681C76.267 208.284 75.551 207.72 75.0337 206.991C74.5165 206.256 74.2306 205.384 74.1761 204.377H76.7081C76.7571 204.982 76.9531 205.485 77.2962 205.888C77.6446 206.286 78.0884 206.582 78.6275 206.778C79.172 206.969 79.7682 207.064 80.4162 207.064C81.1295 207.064 81.7638 206.953 82.3192 206.729C82.8801 206.501 83.3211 206.185 83.6424 205.782C83.9637 205.374 84.1243 204.897 84.1243 204.353C84.1243 203.857 83.9827 203.451 83.6996 203.136C83.4219 202.82 83.0434 202.558 82.5643 202.352C82.0906 202.145 81.5542 201.962 80.9553 201.804L78.9787 201.265C77.6392 200.9 76.5774 200.364 75.7933 199.656C75.0147 198.948 74.6254 198.012 74.6254 196.847C74.6254 195.883 74.8867 195.042 75.4094 194.323C75.9322 193.604 76.64 193.046 77.533 192.648C78.426 192.246 79.4334 192.044 80.555 192.044C81.6876 192.044 82.6868 192.243 83.5526 192.64C84.4238 193.038 85.1098 193.585 85.6108 194.282C86.1117 194.973 86.3731 195.768 86.3949 196.667H83.9609ZM97.3905 203.797V196.455H99.8408V209H97.4395V206.827H97.3089C97.0203 207.497 96.5574 208.055 95.9204 208.502C95.2887 208.943 94.5019 209.163 93.5599 209.163C92.7541 209.163 92.0407 208.986 91.42 208.632C90.8047 208.273 90.3201 207.742 89.9662 207.04C89.6177 206.337 89.4434 205.469 89.4434 204.434V196.455H91.8856V204.14C91.8856 204.995 92.1224 205.676 92.5961 206.182C93.0699 206.689 93.6852 206.942 94.442 206.942C94.8994 206.942 95.3541 206.827 95.806 206.599C96.2634 206.37 96.6418 206.024 96.9413 205.561C97.2462 205.099 97.396 204.511 97.3905 203.797ZM108.407 209.253C107.192 209.253 106.147 208.978 105.27 208.428C104.399 207.873 103.729 207.108 103.261 206.133C102.793 205.158 102.559 204.042 102.559 202.784C102.559 201.51 102.798 200.386 103.277 199.411C103.757 198.431 104.432 197.666 105.303 197.116C106.174 196.566 107.201 196.291 108.382 196.291C109.335 196.291 110.184 196.468 110.93 196.822C111.676 197.171 112.278 197.661 112.735 198.292C113.198 198.924 113.473 199.662 113.56 200.506H111.184C111.053 199.918 110.753 199.411 110.285 198.987C109.822 198.562 109.202 198.349 108.423 198.349C107.742 198.349 107.146 198.529 106.634 198.888C106.128 199.242 105.733 199.749 105.45 200.408C105.167 201.061 105.025 201.834 105.025 202.727C105.025 203.642 105.164 204.432 105.442 205.096C105.719 205.76 106.112 206.275 106.618 206.64C107.13 207.004 107.731 207.187 108.423 207.187C108.886 207.187 109.305 207.102 109.681 206.934C110.062 206.759 110.38 206.512 110.636 206.19C110.898 205.869 111.08 205.482 111.184 205.031H113.56C113.473 205.842 113.209 206.566 112.768 207.203C112.327 207.84 111.736 208.341 110.996 208.706C110.261 209.071 109.398 209.253 108.407 209.253ZM118.614 201.551V209H116.172V192.273H118.581V198.496H118.737C119.031 197.821 119.48 197.285 120.084 196.887C120.689 196.49 121.478 196.291 122.453 196.291C123.313 196.291 124.065 196.468 124.707 196.822C125.355 197.176 125.856 197.704 126.21 198.407C126.569 199.104 126.749 199.975 126.749 201.02V209H124.307V201.314C124.307 200.394 124.07 199.681 123.596 199.174C123.123 198.663 122.464 198.407 121.62 198.407C121.043 198.407 120.525 198.529 120.068 198.774C119.616 199.019 119.259 199.379 118.998 199.852C118.742 200.321 118.614 200.887 118.614 201.551ZM135.415 209.253C134.179 209.253 133.114 208.989 132.221 208.461C131.334 207.927 130.648 207.179 130.163 206.215C129.684 205.246 129.444 204.11 129.444 202.809C129.444 201.524 129.684 200.391 130.163 199.411C130.648 198.431 131.323 197.666 132.189 197.116C133.06 196.566 134.078 196.291 135.243 196.291C135.951 196.291 136.637 196.408 137.302 196.642C137.966 196.877 138.562 197.244 139.09 197.745C139.618 198.246 140.035 198.897 140.34 199.697C140.645 200.492 140.797 201.459 140.797 202.597V203.462H130.825V201.633H138.404C138.404 200.99 138.274 200.421 138.012 199.926C137.751 199.425 137.383 199.03 136.91 198.741C136.441 198.453 135.891 198.309 135.26 198.309C134.574 198.309 133.975 198.477 133.463 198.815C132.956 199.147 132.564 199.583 132.287 200.122C132.014 200.655 131.878 201.235 131.878 201.862V203.291C131.878 204.129 132.025 204.843 132.319 205.431C132.619 206.019 133.035 206.468 133.569 206.778C134.103 207.083 134.726 207.236 135.439 207.236C135.902 207.236 136.324 207.17 136.705 207.04C137.087 206.904 137.416 206.702 137.694 206.435C137.971 206.169 138.184 205.839 138.331 205.447L140.642 205.864C140.457 206.544 140.125 207.141 139.646 207.652C139.172 208.159 138.576 208.554 137.857 208.837C137.144 209.114 136.33 209.253 135.415 209.253ZM149.79 192.273H152.853L158.178 205.276H158.374L163.699 192.273H166.762V209H164.361V196.896H164.206L159.272 208.975H157.28L152.346 196.887H152.191V209H149.79V192.273ZM170.235 209V196.455H172.678V209H170.235ZM171.469 194.519C171.044 194.519 170.679 194.377 170.374 194.094C170.075 193.806 169.925 193.462 169.925 193.065C169.925 192.662 170.075 192.319 170.374 192.036C170.679 191.747 171.044 191.603 171.469 191.603C171.893 191.603 172.256 191.747 172.555 192.036C172.86 192.319 173.012 192.662 173.012 193.065C173.012 193.462 172.86 193.806 172.555 194.094C172.256 194.377 171.893 194.519 171.469 194.519ZM181.819 196.455V198.415H174.967V196.455H181.819ZM176.804 193.449H179.246V205.316C179.246 205.79 179.317 206.147 179.459 206.386C179.6 206.621 179.783 206.781 180.006 206.868C180.235 206.95 180.482 206.991 180.749 206.991C180.945 206.991 181.117 206.977 181.264 206.95C181.411 206.923 181.525 206.901 181.607 206.885L182.048 208.902C181.906 208.956 181.705 209.011 181.443 209.065C181.182 209.125 180.855 209.158 180.463 209.163C179.821 209.174 179.222 209.06 178.666 208.82C178.111 208.581 177.662 208.21 177.319 207.71C176.976 207.209 176.804 206.58 176.804 205.823V193.449ZM189.646 213.966C188.649 213.966 187.792 213.835 187.073 213.574C186.36 213.313 185.777 212.967 185.325 212.537C184.873 212.106 184.536 211.635 184.312 211.124L186.411 210.258C186.558 210.497 186.754 210.751 186.999 211.017C187.25 211.29 187.588 211.521 188.012 211.712C188.442 211.902 188.995 211.998 189.67 211.998C190.596 211.998 191.361 211.772 191.965 211.32C192.57 210.873 192.872 210.16 192.872 209.18V206.713H192.717C192.57 206.98 192.357 207.277 192.08 207.603C191.807 207.93 191.432 208.213 190.953 208.453C190.473 208.692 189.85 208.812 189.082 208.812C188.091 208.812 187.198 208.581 186.403 208.118C185.614 207.65 184.988 206.961 184.525 206.051C184.067 205.137 183.839 204.012 183.839 202.678C183.839 201.344 184.065 200.201 184.517 199.248C184.974 198.295 185.6 197.565 186.395 197.059C187.19 196.547 188.091 196.291 189.099 196.291C189.877 196.291 190.506 196.422 190.985 196.683C191.464 196.939 191.837 197.239 192.104 197.582C192.376 197.925 192.586 198.227 192.733 198.488H192.913V196.455H195.306V209.278C195.306 210.356 195.055 211.241 194.555 211.932C194.054 212.624 193.376 213.136 192.521 213.468C191.671 213.8 190.713 213.966 189.646 213.966ZM189.621 206.787C190.324 206.787 190.917 206.623 191.402 206.297C191.892 205.964 192.262 205.491 192.513 204.875C192.769 204.255 192.896 203.511 192.896 202.646C192.896 201.802 192.771 201.058 192.521 200.416C192.27 199.773 191.903 199.272 191.418 198.913C190.934 198.548 190.335 198.366 189.621 198.366C188.886 198.366 188.274 198.556 187.784 198.938C187.294 199.313 186.923 199.825 186.673 200.473C186.428 201.121 186.305 201.845 186.305 202.646C186.305 203.468 186.43 204.189 186.681 204.81C186.931 205.431 187.302 205.915 187.792 206.264C188.287 206.612 188.897 206.787 189.621 206.787ZM201.023 192.273V209H198.581V192.273H201.023ZM204.309 209V196.455H206.751V209H204.309ZM205.542 194.519C205.117 194.519 204.752 194.377 204.448 194.094C204.148 193.806 203.998 193.462 203.998 193.065C203.998 192.662 204.148 192.319 204.448 192.036C204.752 191.747 205.117 191.603 205.542 191.603C205.967 191.603 206.329 191.747 206.628 192.036C206.933 192.319 207.086 192.662 207.086 193.065C207.086 193.462 206.933 193.806 206.628 194.094C206.329 194.377 205.967 194.519 205.542 194.519ZM215.443 209.253C214.207 209.253 213.143 208.989 212.25 208.461C211.362 207.927 210.676 207.179 210.191 206.215C209.712 205.246 209.473 204.11 209.473 202.809C209.473 201.524 209.712 200.391 210.191 199.411C210.676 198.431 211.351 197.666 212.217 197.116C213.088 196.566 214.106 196.291 215.272 196.291C215.98 196.291 216.666 196.408 217.33 196.642C217.994 196.877 218.59 197.244 219.119 197.745C219.647 198.246 220.063 198.897 220.368 199.697C220.673 200.492 220.826 201.459 220.826 202.597V203.462H210.853V201.633H218.433C218.433 200.99 218.302 200.421 218.04 199.926C217.779 199.425 217.412 199.03 216.938 198.741C216.47 198.453 215.92 198.309 215.288 198.309C214.602 198.309 214.003 198.477 213.491 198.815C212.985 199.147 212.593 199.583 212.315 200.122C212.043 200.655 211.907 201.235 211.907 201.862V203.291C211.907 204.129 212.054 204.843 212.348 205.431C212.647 206.019 213.064 206.468 213.597 206.778C214.131 207.083 214.754 207.236 215.468 207.236C215.931 207.236 216.353 207.17 216.734 207.04C217.115 206.904 217.444 206.702 217.722 206.435C218 206.169 218.212 205.839 218.359 205.447L220.67 205.864C220.485 206.544 220.153 207.141 219.674 207.652C219.2 208.159 218.604 208.554 217.885 208.837C217.172 209.114 216.358 209.253 215.443 209.253ZM228.232 209.245C227.219 209.245 226.315 208.986 225.52 208.469C224.73 207.946 224.11 207.203 223.658 206.239C223.211 205.27 222.988 204.108 222.988 202.752C222.988 201.396 223.214 200.236 223.666 199.272C224.123 198.309 224.749 197.571 225.544 197.059C226.339 196.547 227.241 196.291 228.248 196.291C229.027 196.291 229.653 196.422 230.127 196.683C230.606 196.939 230.976 197.239 231.237 197.582C231.504 197.925 231.711 198.227 231.858 198.488H232.005V192.273H234.447V209H232.062V207.048H231.858C231.711 207.315 231.499 207.62 231.221 207.963C230.949 208.306 230.573 208.605 230.094 208.861C229.615 209.117 228.994 209.245 228.232 209.245ZM228.771 207.162C229.473 207.162 230.067 206.977 230.551 206.607C231.041 206.231 231.412 205.711 231.662 205.047C231.918 204.383 232.046 203.609 232.046 202.727C232.046 201.856 231.921 201.094 231.67 200.44C231.42 199.787 231.052 199.278 230.568 198.913C230.083 198.548 229.484 198.366 228.771 198.366C228.036 198.366 227.423 198.556 226.933 198.938C226.443 199.319 226.073 199.839 225.822 200.498C225.577 201.156 225.455 201.9 225.455 202.727C225.455 203.566 225.58 204.32 225.83 204.99C226.081 205.659 226.451 206.19 226.941 206.582C227.437 206.969 228.046 207.162 228.771 207.162ZM243.34 209.253C242.104 209.253 241.039 208.989 240.146 208.461C239.259 207.927 238.573 207.179 238.088 206.215C237.609 205.246 237.369 204.11 237.369 202.809C237.369 201.524 237.609 200.391 238.088 199.411C238.573 198.431 239.248 197.666 240.113 197.116C240.985 196.566 242.003 196.291 243.168 196.291C243.876 196.291 244.562 196.408 245.226 196.642C245.891 196.877 246.487 197.244 247.015 197.745C247.543 198.246 247.96 198.897 248.265 199.697C248.57 200.492 248.722 201.459 248.722 202.597V203.462H238.749V201.633H246.329C246.329 200.99 246.198 200.421 245.937 199.926C245.676 199.425 245.308 199.03 244.834 198.741C244.366 198.453 243.816 198.309 243.184 198.309C242.498 198.309 241.899 198.477 241.388 198.815C240.881 199.147 240.489 199.583 240.211 200.122C239.939 200.655 239.803 201.235 239.803 201.862V203.291C239.803 204.129 239.95 204.843 240.244 205.431C240.544 206.019 240.96 206.468 241.494 206.778C242.027 207.083 242.651 207.236 243.364 207.236C243.827 207.236 244.249 207.17 244.63 207.04C245.011 206.904 245.341 206.702 245.618 206.435C245.896 206.169 246.108 205.839 246.256 205.447L248.567 205.864C248.382 206.544 248.05 207.141 247.57 207.652C247.097 208.159 246.501 208.554 245.782 208.837C245.068 209.114 244.254 209.253 243.34 209.253ZM251.432 209V196.455H253.792V198.447H253.923C254.152 197.772 254.554 197.241 255.132 196.855C255.714 196.463 256.373 196.267 257.108 196.267C257.261 196.267 257.44 196.272 257.647 196.283C257.86 196.294 258.026 196.308 258.146 196.324V198.66C258.047 198.633 257.873 198.603 257.623 198.57C257.372 198.532 257.122 198.513 256.871 198.513C256.294 198.513 255.78 198.635 255.328 198.88C254.881 199.12 254.527 199.455 254.266 199.885C254.005 200.31 253.874 200.794 253.874 201.339V209H251.432Z" fill="black"/>
<path d="M586 173H660C660.552 173 661 173.448 661 174V228C661 228.552 660.552 229 660 229H586V173Z" fill="#1472FF"/>
<path d="M606.961 196.667C606.874 195.894 606.514 195.295 605.883 194.87C605.251 194.44 604.456 194.225 603.498 194.225C602.812 194.225 602.218 194.334 601.717 194.551C601.216 194.764 600.827 195.058 600.549 195.434C600.277 195.804 600.141 196.226 600.141 196.7C600.141 197.097 600.234 197.44 600.419 197.729C600.609 198.017 600.857 198.26 601.162 198.456C601.472 198.646 601.804 198.807 602.158 198.938C602.512 199.063 602.853 199.166 603.179 199.248L604.813 199.673C605.346 199.803 605.894 199.98 606.455 200.203C607.015 200.427 607.535 200.721 608.015 201.086C608.494 201.45 608.88 201.902 609.174 202.441C609.474 202.98 609.624 203.626 609.624 204.377C609.624 205.325 609.379 206.166 608.888 206.901C608.404 207.636 607.699 208.216 606.773 208.641C605.853 209.065 604.739 209.278 603.433 209.278C602.18 209.278 601.097 209.079 600.182 208.681C599.267 208.284 598.551 207.72 598.034 206.991C597.516 206.256 597.231 205.384 597.176 204.377H599.708C599.757 204.982 599.953 205.485 600.296 205.888C600.645 206.286 601.088 206.582 601.627 206.778C602.172 206.969 602.768 207.064 603.416 207.064C604.129 207.064 604.764 206.953 605.319 206.729C605.88 206.501 606.321 206.185 606.642 205.782C606.964 205.374 607.124 204.897 607.124 204.353C607.124 203.857 606.983 203.451 606.7 203.136C606.422 202.82 606.043 202.558 605.564 202.352C605.091 202.145 604.554 201.962 603.955 201.804L601.979 201.265C600.639 200.9 599.577 200.364 598.793 199.656C598.015 198.948 597.625 198.012 597.625 196.847C597.625 195.883 597.887 195.042 598.409 194.323C598.932 193.604 599.64 193.046 600.533 192.648C601.426 192.246 602.433 192.044 603.555 192.044C604.688 192.044 605.687 192.243 606.553 192.64C607.424 193.038 608.11 193.585 608.611 194.282C609.112 194.973 609.373 195.768 609.395 196.667H606.961ZM620.391 203.797V196.455H622.841V209H620.44V206.827H620.309C620.02 207.497 619.557 208.055 618.92 208.502C618.289 208.943 617.502 209.163 616.56 209.163C615.754 209.163 615.041 208.986 614.42 208.632C613.805 208.273 613.32 207.742 612.966 207.04C612.618 206.337 612.443 205.469 612.443 204.434V196.455H614.886V204.14C614.886 204.995 615.122 205.676 615.596 206.182C616.07 206.689 616.685 206.942 617.442 206.942C617.899 206.942 618.354 206.827 618.806 206.599C619.263 206.37 619.642 206.024 619.941 205.561C620.246 205.099 620.396 204.511 620.391 203.797ZM631.407 209.253C630.192 209.253 629.147 208.978 628.27 208.428C627.399 207.873 626.729 207.108 626.261 206.133C625.793 205.158 625.559 204.042 625.559 202.784C625.559 201.51 625.798 200.386 626.277 199.411C626.757 198.431 627.432 197.666 628.303 197.116C629.174 196.566 630.201 196.291 631.382 196.291C632.335 196.291 633.184 196.468 633.93 196.822C634.676 197.171 635.278 197.661 635.735 198.292C636.198 198.924 636.473 199.662 636.56 200.506H634.184C634.053 199.918 633.753 199.411 633.285 198.987C632.822 198.562 632.202 198.349 631.423 198.349C630.742 198.349 630.146 198.529 629.634 198.888C629.128 199.242 628.733 199.749 628.45 200.408C628.167 201.061 628.025 201.834 628.025 202.727C628.025 203.642 628.164 204.432 628.442 205.096C628.719 205.76 629.112 206.275 629.618 206.64C630.13 207.004 630.731 207.187 631.423 207.187C631.886 207.187 632.305 207.102 632.681 206.934C633.062 206.759 633.38 206.512 633.636 206.19C633.898 205.869 634.08 205.482 634.184 205.031H636.56C636.473 205.842 636.209 206.566 635.768 207.203C635.327 207.84 634.736 208.341 633.996 208.706C633.261 209.071 632.398 209.253 631.407 209.253ZM641.614 201.551V209H639.172V192.273H641.581V198.496H641.737C642.031 197.821 642.48 197.285 643.084 196.887C643.689 196.49 644.478 196.291 645.453 196.291C646.313 196.291 647.065 196.468 647.707 196.822C648.355 197.176 648.856 197.704 649.21 198.407C649.569 199.104 649.749 199.975 649.749 201.02V209H647.307V201.314C647.307 200.394 647.07 199.681 646.596 199.174C646.123 198.663 645.464 198.407 644.62 198.407C644.043 198.407 643.525 198.529 643.068 198.774C642.616 199.019 642.259 199.379 641.998 199.852C641.742 200.321 641.614 200.887 641.614 201.551Z" fill="white"/>
<circle cx="85" cy="286" r="23" fill="#FF5C5C"/>
<rect x="129" y="273" width="134" height="27" fill="#D9D9D9"/>
<rect x="268" y="273" width="53" height="27" fill="#D9D9D9"/>
<rect x="427" y="281" width="84" height="11" fill="#D9D9D9"/>
<rect x="516" y="281" width="35" height="11" fill="#D9D9D9"/>
<rect x="556" y="281" width="50" height="11" fill="#D9D9D9"/>
<rect x="611" y="281" width="10" height="11" fill="#D9D9D9"/>
<circle cx="85" cy="340" r="23" fill="#FFE55C"/>
<rect x="129" y="327" width="134" height="27" fill="#D9D9D9"/>
<rect x="268" y="327" width="53" height="27" fill="#D9D9D9"/>
<rect x="427" y="335" width="84" height="11" fill="#D9D9D9"/>
<rect x="516" y="335" width="35" height="11" fill="#D9D9D9"/>
<rect x="556" y="335" width="50" height="11" fill="#D9D9D9"/>
<rect x="611" y="335" width="10" height="11" fill="#D9D9D9"/>
<circle cx="85" cy="394" r="23" fill="#5C80FF"/>
<rect x="129" y="381" width="134" height="27" fill="#D9D9D9"/>
<rect x="268" y="381" width="53" height="27" fill="#D9D9D9"/>
<rect x="427" y="389" width="84" height="11" fill="#D9D9D9"/>
<rect x="516" y="389" width="35" height="11" fill="#D9D9D9"/>
<rect x="556" y="389" width="50" height="11" fill="#D9D9D9"/>
<rect x="611" y="389" width="10" height="11" fill="#D9D9D9"/>
<circle cx="85" cy="448" r="23" fill="black"/>
<rect x="129" y="435" width="134" height="27" fill="#D9D9D9"/>
<rect x="268" y="435" width="53" height="27" fill="#D9D9D9"/>
<rect x="427" y="443" width="84" height="11" fill="#D9D9D9"/>
<rect x="516" y="443" width="35" height="11" fill="#D9D9D9"/>
<rect x="556" y="443" width="50" height="11" fill="#D9D9D9"/>
<rect x="611" y="443" width="10" height="11" fill="#D9D9D9"/>
<circle cx="85" cy="502" r="23" fill="#5CFFA7"/>
<rect x="129" y="489" width="134" height="27" fill="#D9D9D9"/>
<rect x="268" y="489" width="53" height="27" fill="#D9D9D9"/>
<rect x="427" y="497" width="84" height="11" fill="#D9D9D9"/>
<rect x="516" y="497" width="35" height="11" fill="#D9D9D9"/>
<rect x="556" y="497" width="50" height="11" fill="#D9D9D9"/>
<rect x="611" y="497" width="10" height="11" fill="#D9D9D9"/>
<circle cx="85" cy="556" r="23" fill="#FF5C5C"/>
<rect x="129" y="543" width="134" height="27" fill="#D9D9D9"/>
<rect x="268" y="543" width="53" height="27" fill="#D9D9D9"/>
<rect x="427" y="551" width="84" height="11" fill="#D9D9D9"/>
<rect x="516" y="551" width="35" height="11" fill="#D9D9D9"/>
<rect x="556" y="551" width="50" height="11" fill="#D9D9D9"/>
<rect x="611" y="551" width="10" height="11" fill="#D9D9D9"/>
<circle cx="85" cy="610" r="23" fill="black"/>
<rect x="129" y="597" width="134" height="27" fill="#D9D9D9"/>
<rect x="268" y="597" width="53" height="27" fill="#D9D9D9"/>
<rect x="427" y="605" width="84" height="11" fill="#D9D9D9"/>
<rect x="516" y="605" width="35" height="11" fill="#D9D9D9"/>
<rect x="556" y="605" width="50" height="11" fill="#D9D9D9"/>
<rect x="611" y="605" width="10" height="11" fill="#D9D9D9"/>
</svg>
