<svg width="110" height="52" viewBox="0 0 110 52" fill="none" xmlns="http://www.w3.org/2000/svg">
<path d="M13.18 17.04C12.9267 17.1867 12.6267 17.3333 12.28 17.48C11.9467 17.6133 11.5867 17.74 11.2 17.86C10.8267 17.9667 10.4467 18.0533 10.06 18.12C9.68667 18.2 9.33333 18.24 9 18.24C7.93333 18.24 6.97333 18.1 6.12 17.82C5.26667 17.5267 4.54 17.0867 3.94 16.5C3.34 15.9 2.87333 15.1467 2.54 14.24C2.22 13.3333 2.06 12.2533 2.06 11C2.06 9.69333 2.24667 8.58 2.62 7.66C3.00667 6.74 3.51333 5.99333 4.14 5.42C4.78 4.83333 5.5 4.41333 6.3 4.16C7.11333 3.89333 7.94 3.76 8.78 3.76C9.66 3.76 10.4 3.82 11 3.94C11.6133 4.04667 12.1467 4.21333 12.6 4.44C12.6 4.64 12.5933 4.88667 12.58 5.18C12.5667 5.47333 12.5467 5.78 12.52 6.1C12.4933 6.42 12.46 6.74 12.42 7.06C12.38 7.36667 12.34 7.64 12.3 7.88H11.78L10.74 5C10.5933 4.92 10.3467 4.86667 10 4.84C9.65333 4.81333 9.31333 4.8 8.98 4.8C8.31333 4.8 7.68 4.92667 7.08 5.18C6.48 5.42 5.95333 5.8 5.5 6.32C5.06 6.82667 4.70667 7.47333 4.44 8.26C4.17333 9.03333 4.04 9.94667 4.04 11C4.04 11.9467 4.16667 12.8 4.42 13.56C4.68667 14.32 5.04667 14.9733 5.5 15.52C5.96667 16.0533 6.50667 16.4667 7.12 16.76C7.74667 17.0533 8.42 17.2 9.14 17.2C9.40667 17.2 9.66667 17.1733 9.92 17.12C10.1733 17.0667 10.4067 17.0067 10.62 16.94C10.8333 16.86 11.0067 16.78 11.14 16.7C11.2867 16.62 11.3867 16.5533 11.44 16.5V12.46C11.0933 12.4333 10.76 12.3733 10.44 12.28C10.1333 12.1867 9.82667 12.0867 9.52 11.98V11.4H14.42V11.98C14.2867 12.0733 14.1267 12.16 13.94 12.24C13.7533 12.32 13.5 12.3933 13.18 12.46V17.04ZM23.6895 16.6C23.5829 16.8267 23.4162 17.04 23.1895 17.24C22.9629 17.44 22.7029 17.6133 22.4095 17.76C22.1162 17.9067 21.7962 18.02 21.4495 18.1C21.1029 18.1933 20.7495 18.24 20.3895 18.24C19.6029 18.24 18.9095 18.12 18.3095 17.88C17.7095 17.6267 17.2095 17.2733 16.8095 16.82C16.4095 16.3533 16.1029 15.8 15.8895 15.16C15.6895 14.52 15.5895 13.8 15.5895 13C15.5895 11.2933 15.9829 9.99333 16.7695 9.1C17.5562 8.20667 18.6695 7.76 20.1095 7.76C20.5762 7.76 21.0362 7.82667 21.4895 7.96C21.9429 8.08 22.3429 8.28667 22.6895 8.58C23.0495 8.87333 23.3362 9.26667 23.5495 9.76C23.7762 10.24 23.8895 10.84 23.8895 11.56C23.8895 11.7867 23.8762 12.02 23.8495 12.26C23.8362 12.4867 23.8029 12.7333 23.7495 13H17.5095C17.5095 13.56 17.5762 14.0867 17.7095 14.58C17.8562 15.06 18.0695 15.48 18.3495 15.84C18.6295 16.2 18.9829 16.4867 19.4095 16.7C19.8362 16.9 20.3362 17 20.9095 17C21.3762 17 21.8495 16.9333 22.3295 16.8C22.8095 16.6667 23.1695 16.4933 23.4095 16.28L23.6895 16.6ZM20.0295 8.64C19.2695 8.64 18.6895 8.9 18.2895 9.42C17.8895 9.92667 17.6495 10.8267 17.5695 12.12H21.9695C21.9829 12 21.9895 11.8867 21.9895 11.78C22.0029 11.66 22.0095 11.5467 22.0095 11.44C22.0095 10.5867 21.8495 9.90667 21.5295 9.4C21.2095 8.89333 20.7095 8.64 20.0295 8.64ZM30.7281 15.72C30.7281 15.3467 30.6081 15.0333 30.3681 14.78C30.1415 14.5133 29.8481 14.2667 29.4881 14.04C29.1281 13.8133 28.7415 13.5933 28.3281 13.38C27.9281 13.1667 27.5481 12.92 27.1881 12.64C26.8281 12.3467 26.5281 12.0133 26.2881 11.64C26.0615 11.2667 25.9481 10.8067 25.9481 10.26C25.9481 9.9 26.0281 9.56667 26.1881 9.26C26.3615 8.95333 26.5881 8.69333 26.8681 8.48C27.1481 8.25333 27.4748 8.08 27.8481 7.96C28.2215 7.82667 28.6215 7.76 29.0481 7.76C29.7681 7.76 30.3548 7.8 30.8081 7.88C31.2748 7.96 31.7215 8.07333 32.1481 8.22C32.0948 8.64667 32.0281 9.08 31.9481 9.52C31.8815 9.94667 31.7815 10.3867 31.6481 10.84H31.1481L30.3881 8.8C30.2281 8.73333 30.0481 8.69333 29.8481 8.68C29.6481 8.65333 29.4415 8.64 29.2281 8.64C28.9881 8.64 28.7748 8.68667 28.5881 8.78C28.4148 8.86 28.2615 8.96667 28.1281 9.1C28.0081 9.23333 27.9148 9.38667 27.8481 9.56C27.7815 9.73333 27.7481 9.90667 27.7481 10.08C27.7481 10.44 27.8615 10.7533 28.0881 11.02C28.3281 11.2733 28.6281 11.5133 28.9881 11.74C29.3481 11.9533 29.7281 12.1667 30.1281 12.38C30.5415 12.5933 30.9281 12.8333 31.2881 13.1C31.6481 13.3667 31.9415 13.68 32.1681 14.04C32.4081 14.3867 32.5281 14.8067 32.5281 15.3C32.5281 15.7533 32.4281 16.16 32.2281 16.52C32.0415 16.88 31.7748 17.1867 31.4281 17.44C31.0948 17.6933 30.7015 17.8867 30.2481 18.02C29.8081 18.1667 29.3348 18.24 28.8281 18.24C28.2548 18.24 27.7281 18.1867 27.2481 18.08C26.7681 17.9867 26.2681 17.8467 25.7481 17.66C25.7748 17.18 25.8348 16.72 25.9281 16.28C26.0215 15.8267 26.1415 15.3933 26.2881 14.98H26.7881L27.6681 17.16C27.8148 17.2667 27.9881 17.3267 28.1881 17.34C28.4015 17.3533 28.5948 17.36 28.7681 17.36C29.3548 17.36 29.8281 17.2 30.1881 16.88C30.5481 16.56 30.7281 16.1733 30.7281 15.72ZM42.4005 16.6C42.2938 16.8267 42.1271 17.04 41.9005 17.24C41.6738 17.44 41.4138 17.6133 41.1205 17.76C40.8271 17.9067 40.5071 18.02 40.1605 18.1C39.8138 18.1933 39.4605 18.24 39.1005 18.24C38.3138 18.24 37.6205 18.12 37.0205 17.88C36.4205 17.6267 35.9205 17.2733 35.5205 16.82C35.1205 16.3533 34.8138 15.8 34.6005 15.16C34.4005 14.52 34.3005 13.8 34.3005 13C34.3005 11.2933 34.6938 9.99333 35.4805 9.1C36.2671 8.20667 37.3805 7.76 38.8205 7.76C39.2871 7.76 39.7471 7.82667 40.2005 7.96C40.6538 8.08 41.0538 8.28667 41.4005 8.58C41.7605 8.87333 42.0471 9.26667 42.2605 9.76C42.4871 10.24 42.6005 10.84 42.6005 11.56C42.6005 11.7867 42.5871 12.02 42.5605 12.26C42.5471 12.4867 42.5138 12.7333 42.4605 13H36.2205C36.2205 13.56 36.2871 14.0867 36.4205 14.58C36.5671 15.06 36.7805 15.48 37.0605 15.84C37.3405 16.2 37.6938 16.4867 38.1205 16.7C38.5471 16.9 39.0471 17 39.6205 17C40.0871 17 40.5605 16.9333 41.0405 16.8C41.5205 16.6667 41.8805 16.4933 42.1205 16.28L42.4005 16.6ZM38.7405 8.64C37.9805 8.64 37.4005 8.9 37.0005 9.42C36.6005 9.92667 36.3605 10.8267 36.2805 12.12H40.6805C40.6938 12 40.7005 11.8867 40.7005 11.78C40.7138 11.66 40.7205 11.5467 40.7205 11.44C40.7205 10.5867 40.5605 9.90667 40.2405 9.4C39.9205 8.89333 39.4205 8.64 38.7405 8.64ZM48.7991 18H44.3591V17.5C44.7991 17.2867 45.2391 17.1267 45.6791 17.02V4.36L44.1591 4.2V3.68C44.5057 3.52 44.9391 3.38 45.4591 3.26C45.9791 3.14 46.4857 3.04 46.9791 2.96H47.4791V17.02C47.9191 17.1267 48.3591 17.2867 48.7991 17.5V18ZM54.8147 18H50.3747V17.5C50.8147 17.2867 51.2547 17.1267 51.6947 17.02V4.36L50.1747 4.2V3.68C50.5214 3.52 50.9547 3.38 51.4747 3.26C51.9947 3.14 52.5014 3.04 52.9947 2.96H53.4947V17.02C53.9347 17.1267 54.3747 17.2867 54.8147 17.5V18ZM61.4703 15.72C61.4703 15.3467 61.3503 15.0333 61.1103 14.78C60.8836 14.5133 60.5903 14.2667 60.2303 14.04C59.8703 13.8133 59.4836 13.5933 59.0703 13.38C58.6703 13.1667 58.2903 12.92 57.9303 12.64C57.5703 12.3467 57.2703 12.0133 57.0303 11.64C56.8036 11.2667 56.6903 10.8067 56.6903 10.26C56.6903 9.9 56.7703 9.56667 56.9303 9.26C57.1036 8.95333 57.3303 8.69333 57.6103 8.48C57.8903 8.25333 58.217 8.08 58.5903 7.96C58.9636 7.82667 59.3636 7.76 59.7903 7.76C60.5103 7.76 61.097 7.8 61.5503 7.88C62.017 7.96 62.4636 8.07333 62.8903 8.22C62.837 8.64667 62.7703 9.08 62.6903 9.52C62.6236 9.94667 62.5236 10.3867 62.3903 10.84H61.8903L61.1303 8.8C60.9703 8.73333 60.7903 8.69333 60.5903 8.68C60.3903 8.65333 60.1836 8.64 59.9703 8.64C59.7303 8.64 59.517 8.68667 59.3303 8.78C59.157 8.86 59.0036 8.96667 58.8703 9.1C58.7503 9.23333 58.657 9.38667 58.5903 9.56C58.5236 9.73333 58.4903 9.90667 58.4903 10.08C58.4903 10.44 58.6036 10.7533 58.8303 11.02C59.0703 11.2733 59.3703 11.5133 59.7303 11.74C60.0903 11.9533 60.4703 12.1667 60.8703 12.38C61.2836 12.5933 61.6703 12.8333 62.0303 13.1C62.3903 13.3667 62.6836 13.68 62.9103 14.04C63.1503 14.3867 63.2703 14.8067 63.2703 15.3C63.2703 15.7533 63.1703 16.16 62.9703 16.52C62.7836 16.88 62.517 17.1867 62.1703 17.44C61.837 17.6933 61.4436 17.8867 60.9903 18.02C60.5503 18.1667 60.077 18.24 59.5703 18.24C58.997 18.24 58.4703 18.1867 57.9903 18.08C57.5103 17.9867 57.0103 17.8467 56.4903 17.66C56.517 17.18 56.577 16.72 56.6703 16.28C56.7636 15.8267 56.8836 15.3933 57.0303 14.98H57.5303L58.4103 17.16C58.557 17.2667 58.7303 17.3267 58.9303 17.34C59.1436 17.3533 59.337 17.36 59.5103 17.36C60.097 17.36 60.5703 17.2 60.9303 16.88C61.2903 16.56 61.4703 16.1733 61.4703 15.72ZM72.7627 16.6C72.5227 17.0667 72.1293 17.46 71.5827 17.78C71.0493 18.0867 70.4227 18.24 69.7027 18.24C68.916 18.24 68.2293 18.12 67.6427 17.88C67.0693 17.6267 66.5893 17.2733 66.2027 16.82C65.816 16.3533 65.5227 15.8 65.3227 15.16C65.136 14.5067 65.0427 13.7867 65.0427 13C65.0427 11.3067 65.456 10.0133 66.2827 9.12C67.1093 8.21333 68.236 7.76 69.6627 7.76C70.316 7.76 70.896 7.82 71.4027 7.94C71.9227 8.04667 72.3627 8.19333 72.7227 8.38C72.6827 8.82 72.6093 9.31333 72.5027 9.86C72.396 10.4067 72.2627 10.86 72.1027 11.22H71.5627L70.7227 8.84C70.6293 8.77333 70.5227 8.72667 70.4027 8.7C70.2827 8.66 70.0827 8.64 69.8027 8.64C68.896 8.64 68.196 8.97333 67.7027 9.64C67.2093 10.2933 66.9627 11.4067 66.9627 12.98C66.9627 13.4867 67.0293 13.98 67.1627 14.46C67.3093 14.94 67.5227 15.3733 67.8027 15.76C68.096 16.1333 68.456 16.4333 68.8827 16.66C69.3227 16.8867 69.8293 17 70.4027 17C70.8693 17 71.276 16.9333 71.6227 16.8C71.9693 16.6667 72.2627 16.5067 72.5027 16.32L72.7627 16.6ZM84.9391 18H80.6191V17.5C80.9391 17.3267 81.3391 17.1667 81.8191 17.02V12.34C81.8191 11.3 81.6724 10.4867 81.3791 9.9C81.0857 9.3 80.5524 9 79.7791 9C79.4324 9 79.1191 9.06667 78.8391 9.2C78.5591 9.32 78.3057 9.48 78.0791 9.68C77.8524 9.88 77.6591 10.1133 77.4991 10.38C77.3391 10.6333 77.2191 10.9 77.1391 11.18V17.02C77.3524 17.0733 77.5524 17.1333 77.7391 17.2C77.9391 17.2667 78.1324 17.3667 78.3191 17.5V18H74.0191V17.5C74.4324 17.2867 74.8724 17.1267 75.3391 17.02V4.36L73.8191 4.2V3.68C74.2057 3.52 74.6524 3.38 75.1591 3.26C75.6791 3.14 76.1724 3.04 76.6391 2.96H77.1391V10.02H77.1591C77.4391 9.39333 77.8391 8.86 78.3591 8.42C78.8924 7.98 79.5324 7.76 80.2791 7.76C80.8124 7.76 81.2857 7.82667 81.6991 7.96C82.1257 8.08 82.4791 8.3 82.7591 8.62C83.0391 8.94 83.2524 9.37333 83.3991 9.92C83.5457 10.4533 83.6191 11.1333 83.6191 11.96V17.02C83.8457 17.0733 84.0724 17.1333 84.2991 17.2C84.5257 17.2667 84.7391 17.3667 84.9391 17.5V18ZM93.4773 15.38C93.4773 15.6733 93.484 15.9267 93.4973 16.14C93.5107 16.3533 93.524 16.58 93.5373 16.82L94.9173 17.02V17.44C94.584 17.6133 94.2107 17.7667 93.7973 17.9C93.3973 18.0333 93.0107 18.1333 92.6373 18.2H92.1373C92.004 17.8933 91.924 17.56 91.8973 17.2C91.8707 16.8267 91.8507 16.42 91.8373 15.98H91.7373C91.684 16.2467 91.5773 16.52 91.4173 16.8C91.2707 17.0667 91.0707 17.3067 90.8173 17.52C90.5773 17.7333 90.2907 17.9067 89.9573 18.04C89.624 18.1733 89.244 18.24 88.8173 18.24C88.004 18.24 87.3373 17.9933 86.8173 17.5C86.3107 17.0067 86.0573 16.36 86.0573 15.56C86.0573 14.9467 86.1773 14.4467 86.4173 14.06C86.6707 13.66 87.0373 13.3467 87.5173 13.12C87.9973 12.8933 88.5907 12.7333 89.2973 12.64C90.004 12.5333 90.824 12.4533 91.7573 12.4C91.8107 11.8267 91.824 11.3133 91.7973 10.86C91.784 10.3933 91.7107 10 91.5773 9.68C91.4573 9.34667 91.2707 9.09333 91.0173 8.92C90.7773 8.73333 90.4573 8.64 90.0573 8.64C89.8707 8.64 89.6573 8.65333 89.4173 8.68C89.1907 8.69333 88.964 8.74667 88.7373 8.84L87.7973 11.24H87.2773C87.144 10.84 87.024 10.4267 86.9173 10C86.824 9.57333 86.764 9.15333 86.7373 8.74C87.244 8.43333 87.804 8.19333 88.4173 8.02C89.044 7.84667 89.7373 7.76 90.4973 7.76C91.1773 7.76 91.7173 7.86 92.1173 8.06C92.5307 8.24667 92.844 8.49333 93.0573 8.8C93.2707 9.10667 93.4107 9.44667 93.4773 9.82C93.544 10.1933 93.5773 10.5667 93.5773 10.94C93.5773 11.74 93.5573 12.5133 93.5173 13.26C93.4907 13.9933 93.4773 14.7 93.4773 15.38ZM89.6173 17C89.9507 17 90.244 16.9333 90.4973 16.8C90.7507 16.6667 90.964 16.5067 91.1373 16.32C91.3107 16.1333 91.4507 15.9467 91.5573 15.76C91.664 15.56 91.7373 15.3933 91.7773 15.26V13.16C91.004 13.16 90.3707 13.2 89.8773 13.28C89.384 13.36 88.9973 13.4867 88.7173 13.66C88.4373 13.8333 88.244 14.0533 88.1373 14.32C88.0307 14.5733 87.9773 14.8667 87.9773 15.2C87.9773 15.7733 88.124 16.22 88.4173 16.54C88.7107 16.8467 89.1107 17 89.6173 17ZM101.495 2.96C101.615 2.96 101.755 2.96667 101.915 2.98C102.075 2.99333 102.242 3.01333 102.415 3.04C102.588 3.05333 102.755 3.08 102.915 3.12C103.075 3.14667 103.215 3.18 103.335 3.22C103.295 3.66 103.235 4.07333 103.155 4.46C103.088 4.83333 103.002 5.17333 102.895 5.48H102.395L101.515 3.76C101.128 3.76 100.795 3.8 100.515 3.88C100.248 3.96 100.022 4.11333 99.835 4.34C99.6617 4.56667 99.5283 4.89333 99.435 5.32C99.355 5.74667 99.315 6.30667 99.315 7V8H101.615V9H99.315V17.02C100.008 17.1 100.648 17.26 101.235 17.5V18H96.195V17.5C96.6083 17.26 97.0483 17.1 97.515 17.02V9H95.995V8.48C96.4617 8.18667 96.9683 7.96667 97.515 7.82V7.12C97.515 6.29333 97.615 5.61333 97.815 5.08C98.015 4.53333 98.295 4.10667 98.655 3.8C99.015 3.48 99.435 3.26 99.915 3.14C100.408 3.02 100.935 2.96 101.495 2.96ZM102.296 8.48C102.803 8.16 103.336 7.93333 103.896 7.8V6.1C104.069 5.95333 104.269 5.82667 104.496 5.72C104.736 5.6 104.969 5.48667 105.196 5.38H105.696V8H108.696V9H105.696V14.8C105.696 15.6 105.823 16.1667 106.076 16.5C106.329 16.8333 106.709 17 107.216 17C107.456 17 107.756 16.9867 108.116 16.96C108.476 16.92 108.783 16.8533 109.036 16.76L109.176 17.06C109.069 17.18 108.916 17.3067 108.716 17.44C108.529 17.5733 108.309 17.7 108.056 17.82C107.816 17.94 107.549 18.04 107.256 18.12C106.963 18.2 106.663 18.24 106.356 18.24C105.556 18.24 104.943 18.0133 104.516 17.56C104.103 17.1067 103.896 16.3733 103.896 15.36V9H102.296V8.48ZM11.8 33.8H12.62C12.6733 34.0133 12.72 34.2733 12.76 34.58C12.8133 34.8733 12.8533 35.1933 12.88 35.54C12.92 35.8733 12.9467 36.2067 12.96 36.54C12.9733 36.8733 12.98 37.1733 12.98 37.44C12.5133 37.7333 11.9267 37.94 11.22 38.06C10.5267 38.18 9.81333 38.24 9.08 38.24C7.97333 38.24 6.96667 38.1067 6.06 37.84C5.16667 37.56 4.4 37.1267 3.76 36.54C3.13333 35.94 2.64667 35.1867 2.3 34.28C1.95333 33.36 1.78 32.26 1.78 30.98C1.78 29.7133 1.96667 28.6267 2.34 27.72C2.72667 26.8 3.24 26.0467 3.88 25.46C4.52 24.8733 5.26 24.4467 6.1 24.18C6.95333 23.9 7.84667 23.76 8.78 23.76C9.66 23.76 10.4533 23.8267 11.16 23.96C11.88 24.08 12.4667 24.2467 12.92 24.46C12.92 24.6733 12.9067 24.9467 12.88 25.28C12.8667 25.6133 12.8333 25.9667 12.78 26.34C12.74 26.7 12.6867 27.06 12.62 27.42C12.5667 27.7667 12.5133 28.06 12.46 28.3H11.62L10.52 25.28C10.4 25.2133 10.2067 25.16 9.94 25.12C9.67333 25.08 9.4 25.06 9.12 25.06C8.57333 25.06 8.06 25.1733 7.58 25.4C7.1 25.6133 6.67333 25.96 6.3 26.44C5.92667 26.92 5.63333 27.54 5.42 28.3C5.20667 29.0467 5.1 29.9467 5.1 31C5.1 32.9067 5.48 34.3733 6.24 35.4C7 36.4267 8.03333 36.94 9.34 36.94C9.71333 36.94 10.0267 36.9133 10.28 36.86C10.5467 36.7933 10.7267 36.7067 10.82 36.6L11.8 33.8ZM23.4469 35.1C23.4469 35.3933 23.4469 35.6467 23.4469 35.86C23.4602 36.0733 23.4802 36.3 23.5069 36.54L24.8869 36.74V37.44C24.7269 37.52 24.5069 37.6 24.2269 37.68C23.9602 37.76 23.6735 37.84 23.3669 37.92C23.0735 37.9867 22.7802 38.04 22.4869 38.08C22.1935 38.1333 21.9335 38.1733 21.7069 38.2H21.0269C20.8935 37.8933 20.8135 37.5867 20.7869 37.28C20.7602 36.9733 20.7402 36.6 20.7269 36.16H20.6269C20.5602 36.4267 20.4469 36.6867 20.2869 36.94C20.1269 37.18 19.9202 37.4 19.6669 37.6C19.4269 37.7867 19.1402 37.94 18.8069 38.06C18.4735 38.18 18.1002 38.24 17.6869 38.24C17.2469 38.24 16.8402 38.1733 16.4669 38.04C16.0935 37.9067 15.7669 37.72 15.4869 37.48C15.2069 37.24 14.9869 36.9533 14.8269 36.62C14.6669 36.2733 14.5869 35.8867 14.5869 35.46C14.5869 34.86 14.7002 34.3667 14.9269 33.98C15.1535 33.5933 15.5069 33.28 15.9869 33.04C16.4802 32.7867 17.1069 32.6 17.8669 32.48C18.6402 32.36 19.5735 32.2733 20.6669 32.22C20.7735 31.0733 20.7269 30.2333 20.5269 29.7C20.3269 29.1667 19.8935 28.9 19.2269 28.9C18.8135 28.9 18.4335 28.9667 18.0869 29.1L17.1469 31.5H16.2669C16.1602 31.34 16.0535 31.16 15.9469 30.96C15.8535 30.7467 15.7602 30.5267 15.6669 30.3C15.5869 30.06 15.5135 29.82 15.4469 29.58C15.3935 29.34 15.3535 29.1067 15.3269 28.88C15.8335 28.5333 16.4869 28.26 17.2869 28.06C18.0869 27.86 18.9335 27.76 19.8269 27.76C20.5869 27.76 21.2069 27.8467 21.6869 28.02C22.1669 28.18 22.5402 28.4067 22.8069 28.7C23.0869 28.98 23.2802 29.3133 23.3869 29.7C23.4935 30.0867 23.5469 30.5 23.5469 30.94C23.5469 31.74 23.5269 32.4667 23.4869 33.12C23.4602 33.76 23.4469 34.42 23.4469 35.1ZM18.9469 36.64C19.2269 36.64 19.4669 36.5867 19.6669 36.48C19.8669 36.3733 20.0335 36.2467 20.1669 36.1C20.3135 35.9533 20.4202 35.7933 20.4869 35.62C20.5669 35.4467 20.6269 35.2933 20.6669 35.16V33.16C20.0402 33.1733 19.5269 33.2133 19.1269 33.28C18.7269 33.3467 18.4135 33.46 18.1869 33.62C17.9602 33.7667 17.8002 33.96 17.7069 34.2C17.6269 34.4267 17.5869 34.7067 17.5869 35.04C17.5869 35.5467 17.7069 35.94 17.9469 36.22C18.1869 36.5 18.5202 36.64 18.9469 36.64ZM30.9797 30.3C30.8197 30.38 30.633 30.5133 30.4197 30.7C30.2064 30.8867 30.013 31.1933 29.8397 31.62V36.74C30.1064 36.7667 30.373 36.82 30.6397 36.9C30.9064 36.9667 31.173 37.0733 31.4397 37.22V38H25.6397V37.22C25.8797 37.0867 26.1064 36.9867 26.3197 36.92C26.533 36.8533 26.7464 36.7933 26.9597 36.74V29.42L25.6397 29.26V28.48C25.853 28.3867 26.113 28.3 26.4197 28.22C26.7397 28.14 27.0664 28.0733 27.3997 28.02C27.733 27.9533 28.053 27.9 28.3597 27.86C28.6797 27.82 28.9464 27.7867 29.1597 27.76H29.8397V30.42H29.9197C30.0264 30.1267 30.1797 29.82 30.3797 29.5C30.593 29.18 30.8397 28.8867 31.1197 28.62C31.3997 28.3533 31.7064 28.14 32.0397 27.98C32.373 27.82 32.7197 27.7467 33.0797 27.76C33.2264 27.9467 33.353 28.2133 33.4597 28.56C33.5664 28.8933 33.653 29.2133 33.7197 29.52V30.3H30.9797ZM39.933 38H34.413V37.22C34.853 37.0067 35.293 36.8467 35.733 36.74V24.62L34.213 24.46V23.68C34.3863 23.6 34.6263 23.52 34.933 23.44C35.2396 23.36 35.5663 23.2933 35.913 23.24C36.273 23.1733 36.6263 23.12 36.973 23.08C37.333 23.0267 37.653 22.9867 37.933 22.96H38.613V36.74C39.053 36.8467 39.493 37.0067 39.933 37.22V38ZM46.5736 38H41.0536V37.22C41.2536 37.1133 41.4603 37.0267 41.6736 36.96C41.8869 36.88 42.1203 36.8067 42.3736 36.74V29.42L41.0536 29.26V28.48C41.2536 28.4 41.5003 28.32 41.7936 28.24C42.1003 28.16 42.4203 28.0933 42.7536 28.04C43.0869 27.9733 43.4136 27.92 43.7336 27.88C44.0536 27.8267 44.3336 27.7867 44.5736 27.76H45.2536V36.74C45.5203 36.8067 45.7603 36.88 45.9736 36.96C46.1869 37.0267 46.3869 37.1133 46.5736 37.22V38ZM42.0336 24.72C42.0336 24.2533 42.1936 23.8867 42.5136 23.62C42.8336 23.3533 43.2469 23.22 43.7536 23.22C44.2603 23.22 44.6736 23.3533 44.9936 23.62C45.3136 23.8867 45.4736 24.2533 45.4736 24.72C45.4736 25.1733 45.3136 25.5333 44.9936 25.8C44.6736 26.0667 44.2603 26.2 43.7536 26.2C43.2469 26.2 42.8336 26.0667 42.5136 25.8C42.1936 25.5333 42.0336 25.1733 42.0336 24.72ZM52.8342 35.82C52.8342 35.4733 52.7076 35.1733 52.4542 34.92C52.2142 34.6667 51.9076 34.4333 51.5342 34.22C51.1742 34.0067 50.7742 33.7933 50.3342 33.58C49.9076 33.3667 49.5076 33.12 49.1342 32.84C48.7742 32.5467 48.4676 32.2067 48.2142 31.82C47.9742 31.4333 47.8542 30.96 47.8542 30.4C47.8542 30 47.9476 29.64 48.1342 29.32C48.3209 28.9867 48.5742 28.7067 48.8942 28.48C49.2142 28.2533 49.5942 28.08 50.0342 27.96C50.4876 27.8267 50.9742 27.76 51.4942 27.76C52.2142 27.76 52.8809 27.82 53.4942 27.94C54.1209 28.0467 54.6676 28.2 55.1342 28.4C55.0809 28.8267 54.9742 29.2867 54.8142 29.78C54.6542 30.26 54.5009 30.7 54.3542 31.1H53.6742L52.8342 29.06C52.6742 28.9933 52.5076 28.9533 52.3342 28.94C52.1609 28.9133 51.9676 28.9 51.7542 28.9C51.3542 28.9 51.0476 29.02 50.8342 29.26C50.6342 29.4867 50.5342 29.7467 50.5342 30.04C50.5342 30.3733 50.6542 30.6667 50.8942 30.92C51.1476 31.16 51.4542 31.3867 51.8142 31.6C52.1876 31.8133 52.5876 32.0267 53.0142 32.24C53.4542 32.4533 53.8542 32.7 54.2142 32.98C54.5876 33.2467 54.8942 33.5667 55.1342 33.94C55.3876 34.3133 55.5142 34.76 55.5142 35.28C55.5142 36.2 55.1409 36.9267 54.3942 37.46C53.6476 37.98 52.6476 38.24 51.3942 38.24C50.7542 38.24 50.0942 38.1733 49.4142 38.04C48.7342 37.9067 48.1476 37.72 47.6542 37.48C47.6809 37 47.7942 36.5133 47.9942 36.02C48.1942 35.5267 48.4076 35.0867 48.6342 34.7H49.3142L50.2942 36.88C50.4409 36.9867 50.6009 37.0533 50.7742 37.08C50.9609 37.0933 51.1342 37.1 51.2942 37.1C51.6809 37.1 52.0342 36.9867 52.3542 36.76C52.6742 36.5333 52.8342 36.22 52.8342 35.82ZM56.2772 28.48C56.7839 28.16 57.3172 27.9333 57.8772 27.8V26.18C57.9572 26.1 58.0905 26.0267 58.2772 25.96C58.4772 25.88 58.6839 25.8133 58.8972 25.76C59.1239 25.6933 59.3439 25.6333 59.5572 25.58C59.7705 25.5267 59.9439 25.4867 60.0772 25.46H60.7572V28H63.3972V29.26H60.7572V34.44C60.7572 35.2667 60.8572 35.84 61.0572 36.16C61.2705 36.48 61.6172 36.64 62.0972 36.64C62.3372 36.64 62.6039 36.6267 62.8972 36.6C63.2039 36.56 63.4839 36.4933 63.7372 36.4L63.8772 37.06C63.7572 37.18 63.5772 37.3067 63.3372 37.44C63.1105 37.5733 62.8439 37.7 62.5372 37.82C62.2439 37.94 61.9172 38.04 61.5572 38.12C61.2105 38.2 60.8439 38.24 60.4572 38.24C59.5905 38.24 58.9439 38.0133 58.5172 37.56C58.0905 37.1067 57.8772 36.3733 57.8772 35.36V29.26H56.2772V28.48ZM73.8255 36.32C73.7188 36.5467 73.5455 36.78 73.3055 37.02C73.0788 37.2467 72.7921 37.4533 72.4455 37.64C72.1121 37.8133 71.7188 37.9533 71.2655 38.06C70.8255 38.18 70.3455 38.24 69.8255 38.24C68.9988 38.24 68.2655 38.12 67.6255 37.88C66.9855 37.6267 66.4521 37.2733 66.0255 36.82C65.5988 36.3533 65.2721 35.8 65.0455 35.16C64.8321 34.52 64.7255 33.8 64.7255 33C64.7255 31.2933 65.1721 29.9933 66.0655 29.1C66.9588 28.2067 68.1988 27.76 69.7855 27.76C70.4655 27.76 71.0988 27.8533 71.6855 28.04C72.2855 28.2267 72.7788 28.5333 73.1655 28.96C73.5655 29.3867 73.8388 29.9467 73.9855 30.64C74.1455 31.3333 74.1388 32.18 73.9655 33.18H67.8255C67.8388 34.2333 68.1055 35.0733 68.6255 35.7C69.1588 36.3267 69.9388 36.64 70.9655 36.64C71.4055 36.64 71.8588 36.5733 72.3255 36.44C72.8055 36.3067 73.1788 36.1333 73.4455 35.92L73.8255 36.32ZM69.7055 28.9C69.4388 28.9 69.1988 28.9467 68.9855 29.04C68.7855 29.1333 68.6055 29.3067 68.4455 29.56C68.2988 29.8 68.1788 30.1333 68.0855 30.56C67.9921 30.9733 67.9255 31.5 67.8855 32.14H71.1055C71.1988 31.1 71.1388 30.3 70.9255 29.74C70.7121 29.18 70.3055 28.9 69.7055 28.9ZM87.4877 38H82.1877V37.22C82.361 37.1267 82.5277 37.0467 82.6877 36.98C82.861 36.9 83.061 36.82 83.2877 36.74V32.04C83.2877 31.2 83.1677 30.5467 82.9277 30.08C82.6877 29.6 82.261 29.36 81.6477 29.36C81.141 29.36 80.701 29.5267 80.3277 29.86C79.9677 30.18 79.6943 30.62 79.5077 31.18V36.74C79.721 36.7933 79.9077 36.86 80.0677 36.94C80.241 37.0067 80.421 37.1 80.6077 37.22V38H75.3077V37.22C75.641 37.0467 76.081 36.8867 76.6277 36.74V29.42L75.3077 29.26V28.48C75.481 28.4 75.7077 28.3267 75.9877 28.26C76.2677 28.18 76.5677 28.1067 76.8877 28.04C77.221 27.9733 77.5543 27.92 77.8877 27.88C78.2343 27.8267 78.5477 27.7867 78.8277 27.76H79.5077V29.82H79.5277C79.8077 29.26 80.2277 28.78 80.7877 28.38C81.3477 27.9667 82.0277 27.76 82.8277 27.76C83.3477 27.76 83.8143 27.8267 84.2277 27.96C84.641 28.08 84.9877 28.3 85.2677 28.62C85.561 28.94 85.781 29.3733 85.9277 29.92C86.0877 30.4533 86.1677 31.1333 86.1677 31.96V36.74C86.701 36.8333 87.141 36.9933 87.4877 37.22V38Z" fill="black"/>
<path d="M3.187 49.108L1.387 45.067C1.213 45.007 1.054 44.935 0.91 44.851V44.5H3.277V44.842C3.199 44.884 3.118 44.926 3.034 44.968C2.956 45.004 2.866 45.037 2.764 45.067L3.601 47.371L3.772 47.974H3.79L3.934 47.362L4.699 45.067C4.603 45.043 4.513 45.013 4.429 44.977C4.351 44.941 4.276 44.899 4.204 44.851V44.5H5.941V44.851C5.881 44.893 5.806 44.932 5.716 44.968C5.632 45.004 5.536 45.037 5.428 45.067L3.853 49L3.187 49.108ZM5.99873 46.75C5.99873 46.384 6.05273 46.057 6.16073 45.769C6.27473 45.475 6.43373 45.226 6.63773 45.022C6.84773 44.818 7.09973 44.662 7.39373 44.554C7.68773 44.446 8.02073 44.392 8.39273 44.392C8.81273 44.392 9.17273 44.452 9.47273 44.572C9.77873 44.686 10.0277 44.848 10.2197 45.058C10.4177 45.262 10.5617 45.511 10.6517 45.805C10.7417 46.093 10.7867 46.408 10.7867 46.75C10.7867 47.116 10.7327 47.446 10.6247 47.74C10.5167 48.028 10.3577 48.274 10.1477 48.478C9.94373 48.682 9.69173 48.838 9.39173 48.946C9.09773 49.054 8.76473 49.108 8.39273 49.108C7.98473 49.108 7.63073 49.051 7.33073 48.937C7.03073 48.817 6.78173 48.655 6.58373 48.451C6.38573 48.241 6.23873 47.992 6.14273 47.704C6.04673 47.41 5.99873 47.092 5.99873 46.75ZM7.39373 46.75C7.39373 47.02 7.40873 47.269 7.43873 47.497C7.47473 47.719 7.53473 47.908 7.61873 48.064C7.70273 48.22 7.81673 48.343 7.96073 48.433C8.10473 48.517 8.29073 48.559 8.51873 48.559C8.65073 48.559 8.77073 48.529 8.87873 48.469C8.98673 48.403 9.07973 48.301 9.15773 48.163C9.23573 48.019 9.29273 47.833 9.32873 47.605C9.37073 47.371 9.39173 47.086 9.39173 46.75C9.39173 46.474 9.37373 46.225 9.33773 46.003C9.30773 45.781 9.25073 45.592 9.16673 45.436C9.08873 45.28 8.98073 45.16 8.84273 45.076C8.70473 44.986 8.53073 44.941 8.32073 44.941C8.16473 44.941 8.02973 44.974 7.91573 45.04C7.80173 45.1 7.70573 45.202 7.62773 45.346C7.54973 45.484 7.48973 45.67 7.44773 45.904C7.41173 46.132 7.39373 46.414 7.39373 46.75ZM16.7515 49H14.3665V48.649C14.4445 48.607 14.5195 48.571 14.5915 48.541C14.6695 48.505 14.7595 48.469 14.8615 48.433V46.318C14.8615 45.94 14.8075 45.646 14.6995 45.436C14.5915 45.22 14.3995 45.112 14.1235 45.112C13.8955 45.112 13.6975 45.187 13.5295 45.337C13.3675 45.481 13.2445 45.679 13.1605 45.931V48.433C13.2565 48.457 13.3405 48.487 13.4125 48.523C13.4905 48.553 13.5715 48.595 13.6555 48.649V49H11.2705V48.649C11.4205 48.571 11.6185 48.499 11.8645 48.433V45.139L11.2705 45.067V44.716C11.3485 44.68 11.4505 44.647 11.5765 44.617C11.7025 44.581 11.8375 44.548 11.9815 44.518C12.1315 44.488 12.2815 44.464 12.4315 44.446C12.5875 44.422 12.7285 44.404 12.8545 44.392H13.1605V45.319H13.1695C13.2955 45.067 13.4845 44.851 13.7365 44.671C13.9885 44.485 14.2945 44.392 14.6545 44.392C14.8885 44.392 15.0985 44.422 15.2845 44.482C15.4705 44.536 15.6265 44.635 15.7525 44.779C15.8845 44.923 15.9835 45.118 16.0495 45.364C16.1215 45.604 16.1575 45.91 16.1575 46.282V48.433C16.3975 48.475 16.5955 48.547 16.7515 48.649V49ZM23.4753 49H20.3613V48.613C20.5113 48.547 20.6613 48.49 20.8113 48.442C20.9673 48.388 21.1233 48.343 21.2793 48.307V44.176L21.3153 43.645C21.1473 43.699 20.9733 43.735 20.7933 43.753C20.6133 43.771 20.4273 43.777 20.2353 43.771L20.1903 43.438C20.5083 43.354 20.8533 43.24 21.2253 43.096C21.6033 42.952 21.9513 42.784 22.2693 42.592H22.5753V48.307C22.7253 48.343 22.8753 48.388 23.0253 48.442C23.1753 48.49 23.3253 48.547 23.4753 48.613V49ZM24.6851 47.587C24.6851 47.167 24.8201 46.816 25.0901 46.534C25.3601 46.246 25.7141 46.033 26.1521 45.895C25.7921 45.691 25.5011 45.451 25.2791 45.175C25.0571 44.893 24.9461 44.569 24.9461 44.203C24.9461 43.969 24.9911 43.756 25.0811 43.564C25.1771 43.366 25.3121 43.195 25.4861 43.051C25.6601 42.907 25.8701 42.796 26.1161 42.718C26.3681 42.634 26.6501 42.592 26.9621 42.592C27.2501 42.592 27.5111 42.628 27.7451 42.7C27.9851 42.772 28.1891 42.871 28.3571 42.997C28.5251 43.123 28.6541 43.276 28.7441 43.456C28.8341 43.636 28.8791 43.834 28.8791 44.05C28.8791 44.41 28.7591 44.722 28.5191 44.986C28.2791 45.25 27.9761 45.439 27.6101 45.553C27.8681 45.691 28.0901 45.829 28.2761 45.967C28.4681 46.105 28.6271 46.249 28.7531 46.399C28.8791 46.549 28.9721 46.708 29.0321 46.876C29.0981 47.044 29.1311 47.227 29.1311 47.425C29.1311 47.659 29.0801 47.878 28.9781 48.082C28.8821 48.286 28.7381 48.466 28.5461 48.622C28.3601 48.772 28.1261 48.892 27.8441 48.982C27.5681 49.066 27.2471 49.108 26.8811 49.108C26.5451 49.108 26.2391 49.069 25.9631 48.991C25.6931 48.913 25.4621 48.808 25.2701 48.676C25.0841 48.538 24.9401 48.376 24.8381 48.19C24.7361 48.004 24.6851 47.803 24.6851 47.587ZM27.8531 47.686C27.8531 47.482 27.8141 47.308 27.7361 47.164C27.6641 47.02 27.5651 46.891 27.4391 46.777C27.3191 46.657 27.1751 46.549 27.0071 46.453C26.8451 46.351 26.6741 46.246 26.4941 46.138C26.2841 46.3 26.1401 46.492 26.0621 46.714C25.9841 46.936 25.9451 47.152 25.9451 47.362C25.9451 47.506 25.9631 47.65 25.9991 47.794C26.0351 47.938 26.0921 48.067 26.1701 48.181C26.2541 48.289 26.3591 48.379 26.4851 48.451C26.6111 48.523 26.7671 48.559 26.9531 48.559C27.1031 48.559 27.2321 48.535 27.3401 48.487C27.4541 48.439 27.5471 48.376 27.6191 48.298C27.6971 48.214 27.7541 48.121 27.7901 48.019C27.8321 47.911 27.8531 47.8 27.8531 47.686ZM26.1701 44.014C26.1701 44.302 26.2691 44.557 26.4671 44.779C26.6711 44.995 26.9321 45.184 27.2501 45.346C27.4181 45.19 27.5351 45.019 27.6011 44.833C27.6731 44.641 27.7091 44.422 27.7091 44.176C27.7091 43.828 27.6371 43.57 27.4931 43.402C27.3551 43.228 27.1721 43.141 26.9441 43.141C26.6741 43.141 26.4761 43.225 26.3501 43.393C26.2301 43.561 26.1701 43.768 26.1701 44.014ZM30.512 44.671H30.206C30.176 44.545 30.146 44.392 30.116 44.212C30.086 44.026 30.056 43.84 30.026 43.654C30.002 43.468 29.981 43.291 29.963 43.123C29.945 42.949 29.936 42.808 29.936 42.7H34.148V43.123C33.824 43.627 33.551 44.101 33.329 44.545C33.107 44.989 32.921 45.439 32.771 45.895C32.621 46.351 32.495 46.828 32.393 47.326C32.297 47.824 32.213 48.382 32.141 49H30.863C31.079 48.13 31.358 47.302 31.7 46.516C32.042 45.73 32.447 44.938 32.915 44.14L33.248 43.708L32.798 43.753H30.863L30.512 44.671ZM35.6009 44.671H35.2949C35.2649 44.545 35.2349 44.392 35.2049 44.212C35.1749 44.026 35.1449 43.84 35.1149 43.654C35.0909 43.468 35.0699 43.291 35.0519 43.123C35.0339 42.949 35.0249 42.808 35.0249 42.7H39.2369V43.123C38.9129 43.627 38.6399 44.101 38.4179 44.545C38.1959 44.989 38.0099 45.439 37.8599 45.895C37.7099 46.351 37.5839 46.828 37.4819 47.326C37.3859 47.824 37.3019 48.382 37.2299 49H35.9519C36.1679 48.13 36.4469 47.302 36.7889 46.516C37.1309 45.73 37.5359 44.938 38.0039 44.14L38.3369 43.708L37.8869 43.753H35.9519L35.6009 44.671Z" fill="black"/>
</svg>
