<svg width="125" height="68" viewBox="0 0 125 68" fill="none" xmlns="http://www.w3.org/2000/svg">
<rect width="125" height="68" fill="#003366"/>
<path d="M20.18 25.04C19.9267 25.1867 19.6267 25.3333 19.28 25.48C18.9467 25.6133 18.5867 25.74 18.2 25.86C17.8267 25.9667 17.4467 26.0533 17.06 26.12C16.6867 26.2 16.3333 26.24 16 26.24C14.9333 26.24 13.9733 26.1 13.12 25.82C12.2667 25.5267 11.54 25.0867 10.94 24.5C10.34 23.9 9.87333 23.1467 9.54 22.24C9.22 21.3333 9.06 20.2533 9.06 19C9.06 17.6933 9.24667 16.58 9.62 15.66C10.0067 14.74 10.5133 13.9933 11.14 13.42C11.78 12.8333 12.5 12.4133 13.3 12.16C14.1133 11.8933 14.94 11.76 15.78 11.76C16.66 11.76 17.4 11.82 18 11.94C18.6133 12.0467 19.1467 12.2133 19.6 12.44C19.6 12.64 19.5933 12.8867 19.58 13.18C19.5667 13.4733 19.5467 13.78 19.52 14.1C19.4933 14.42 19.46 14.74 19.42 15.06C19.38 15.3667 19.34 15.64 19.3 15.88H18.78L17.74 13C17.5933 12.92 17.3467 12.8667 17 12.84C16.6533 12.8133 16.3133 12.8 15.98 12.8C15.3133 12.8 14.68 12.9267 14.08 13.18C13.48 13.42 12.9533 13.8 12.5 14.32C12.06 14.8267 11.7067 15.4733 11.44 16.26C11.1733 17.0333 11.04 17.9467 11.04 19C11.04 19.9467 11.1667 20.8 11.42 21.56C11.6867 22.32 12.0467 22.9733 12.5 23.52C12.9667 24.0533 13.5067 24.4667 14.12 24.76C14.7467 25.0533 15.42 25.2 16.14 25.2C16.4067 25.2 16.6667 25.1733 16.92 25.12C17.1733 25.0667 17.4067 25.0067 17.62 24.94C17.8333 24.86 18.0067 24.78 18.14 24.7C18.2867 24.62 18.3867 24.5533 18.44 24.5V20.46C18.0933 20.4333 17.76 20.3733 17.44 20.28C17.1333 20.1867 16.8267 20.0867 16.52 19.98V19.4H21.42V19.98C21.2867 20.0733 21.1267 20.16 20.94 20.24C20.7533 20.32 20.5 20.3933 20.18 20.46V25.04ZM30.6895 24.6C30.5829 24.8267 30.4162 25.04 30.1895 25.24C29.9629 25.44 29.7029 25.6133 29.4095 25.76C29.1162 25.9067 28.7962 26.02 28.4495 26.1C28.1029 26.1933 27.7495 26.24 27.3895 26.24C26.6029 26.24 25.9095 26.12 25.3095 25.88C24.7095 25.6267 24.2095 25.2733 23.8095 24.82C23.4095 24.3533 23.1029 23.8 22.8895 23.16C22.6895 22.52 22.5895 21.8 22.5895 21C22.5895 19.2933 22.9829 17.9933 23.7695 17.1C24.5562 16.2067 25.6695 15.76 27.1095 15.76C27.5762 15.76 28.0362 15.8267 28.4895 15.96C28.9429 16.08 29.3429 16.2867 29.6895 16.58C30.0495 16.8733 30.3362 17.2667 30.5495 17.76C30.7762 18.24 30.8895 18.84 30.8895 19.56C30.8895 19.7867 30.8762 20.02 30.8495 20.26C30.8362 20.4867 30.8029 20.7333 30.7495 21H24.5095C24.5095 21.56 24.5762 22.0867 24.7095 22.58C24.8562 23.06 25.0695 23.48 25.3495 23.84C25.6295 24.2 25.9829 24.4867 26.4095 24.7C26.8362 24.9 27.3362 25 27.9095 25C28.3762 25 28.8495 24.9333 29.3295 24.8C29.8095 24.6667 30.1695 24.4933 30.4095 24.28L30.6895 24.6ZM27.0295 16.64C26.2695 16.64 25.6895 16.9 25.2895 17.42C24.8895 17.9267 24.6495 18.8267 24.5695 20.12H28.9695C28.9829 20 28.9895 19.8867 28.9895 19.78C29.0029 19.66 29.0095 19.5467 29.0095 19.44C29.0095 18.5867 28.8495 17.9067 28.5295 17.4C28.2095 16.8933 27.7095 16.64 27.0295 16.64ZM37.7281 23.72C37.7281 23.3467 37.6081 23.0333 37.3681 22.78C37.1415 22.5133 36.8481 22.2667 36.4881 22.04C36.1281 21.8133 35.7415 21.5933 35.3281 21.38C34.9281 21.1667 34.5481 20.92 34.1881 20.64C33.8281 20.3467 33.5281 20.0133 33.2881 19.64C33.0615 19.2667 32.9481 18.8067 32.9481 18.26C32.9481 17.9 33.0281 17.5667 33.1881 17.26C33.3615 16.9533 33.5881 16.6933 33.8681 16.48C34.1481 16.2533 34.4748 16.08 34.8481 15.96C35.2215 15.8267 35.6215 15.76 36.0481 15.76C36.7681 15.76 37.3548 15.8 37.8081 15.88C38.2748 15.96 38.7215 16.0733 39.1481 16.22C39.0948 16.6467 39.0281 17.08 38.9481 17.52C38.8815 17.9467 38.7815 18.3867 38.6481 18.84H38.1481L37.3881 16.8C37.2281 16.7333 37.0481 16.6933 36.8481 16.68C36.6481 16.6533 36.4415 16.64 36.2281 16.64C35.9881 16.64 35.7748 16.6867 35.5881 16.78C35.4148 16.86 35.2615 16.9667 35.1281 17.1C35.0081 17.2333 34.9148 17.3867 34.8481 17.56C34.7815 17.7333 34.7481 17.9067 34.7481 18.08C34.7481 18.44 34.8615 18.7533 35.0881 19.02C35.3281 19.2733 35.6281 19.5133 35.9881 19.74C36.3481 19.9533 36.7281 20.1667 37.1281 20.38C37.5415 20.5933 37.9281 20.8333 38.2881 21.1C38.6481 21.3667 38.9415 21.68 39.1681 22.04C39.4081 22.3867 39.5281 22.8067 39.5281 23.3C39.5281 23.7533 39.4281 24.16 39.2281 24.52C39.0415 24.88 38.7748 25.1867 38.4281 25.44C38.0948 25.6933 37.7015 25.8867 37.2481 26.02C36.8081 26.1667 36.3348 26.24 35.8281 26.24C35.2548 26.24 34.7281 26.1867 34.2481 26.08C33.7681 25.9867 33.2681 25.8467 32.7481 25.66C32.7748 25.18 32.8348 24.72 32.9281 24.28C33.0215 23.8267 33.1415 23.3933 33.2881 22.98H33.7881L34.6681 25.16C34.8148 25.2667 34.9881 25.3267 35.1881 25.34C35.4015 25.3533 35.5948 25.36 35.7681 25.36C36.3548 25.36 36.8281 25.2 37.1881 24.88C37.5481 24.56 37.7281 24.1733 37.7281 23.72ZM49.4005 24.6C49.2938 24.8267 49.1271 25.04 48.9005 25.24C48.6738 25.44 48.4138 25.6133 48.1205 25.76C47.8271 25.9067 47.5071 26.02 47.1605 26.1C46.8138 26.1933 46.4605 26.24 46.1005 26.24C45.3138 26.24 44.6205 26.12 44.0205 25.88C43.4205 25.6267 42.9205 25.2733 42.5205 24.82C42.1205 24.3533 41.8138 23.8 41.6005 23.16C41.4005 22.52 41.3005 21.8 41.3005 21C41.3005 19.2933 41.6938 17.9933 42.4805 17.1C43.2671 16.2067 44.3805 15.76 45.8205 15.76C46.2871 15.76 46.7471 15.8267 47.2005 15.96C47.6538 16.08 48.0538 16.2867 48.4005 16.58C48.7605 16.8733 49.0471 17.2667 49.2605 17.76C49.4871 18.24 49.6005 18.84 49.6005 19.56C49.6005 19.7867 49.5871 20.02 49.5605 20.26C49.5471 20.4867 49.5138 20.7333 49.4605 21H43.2205C43.2205 21.56 43.2871 22.0867 43.4205 22.58C43.5671 23.06 43.7805 23.48 44.0605 23.84C44.3405 24.2 44.6938 24.4867 45.1205 24.7C45.5471 24.9 46.0471 25 46.6205 25C47.0871 25 47.5605 24.9333 48.0405 24.8C48.5205 24.6667 48.8805 24.4933 49.1205 24.28L49.4005 24.6ZM45.7405 16.64C44.9805 16.64 44.4005 16.9 44.0005 17.42C43.6005 17.9267 43.3605 18.8267 43.2805 20.12H47.6805C47.6938 20 47.7005 19.8867 47.7005 19.78C47.7138 19.66 47.7205 19.5467 47.7205 19.44C47.7205 18.5867 47.5605 17.9067 47.2405 17.4C46.9205 16.8933 46.4205 16.64 45.7405 16.64ZM55.7991 26H51.3591V25.5C51.7991 25.2867 52.2391 25.1267 52.6791 25.02V12.36L51.1591 12.2V11.68C51.5057 11.52 51.9391 11.38 52.4591 11.26C52.9791 11.14 53.4857 11.04 53.9791 10.96H54.4791V25.02C54.9191 25.1267 55.3591 25.2867 55.7991 25.5V26ZM61.8147 26H57.3747V25.5C57.8147 25.2867 58.2547 25.1267 58.6947 25.02V12.36L57.1747 12.2V11.68C57.5214 11.52 57.9547 11.38 58.4747 11.26C58.9947 11.14 59.5014 11.04 59.9947 10.96H60.4947V25.02C60.9347 25.1267 61.3747 25.2867 61.8147 25.5V26ZM68.4703 23.72C68.4703 23.3467 68.3503 23.0333 68.1103 22.78C67.8836 22.5133 67.5903 22.2667 67.2303 22.04C66.8703 21.8133 66.4836 21.5933 66.0703 21.38C65.6703 21.1667 65.2903 20.92 64.9303 20.64C64.5703 20.3467 64.2703 20.0133 64.0303 19.64C63.8036 19.2667 63.6903 18.8067 63.6903 18.26C63.6903 17.9 63.7703 17.5667 63.9303 17.26C64.1036 16.9533 64.3303 16.6933 64.6103 16.48C64.8903 16.2533 65.217 16.08 65.5903 15.96C65.9636 15.8267 66.3636 15.76 66.7903 15.76C67.5103 15.76 68.097 15.8 68.5503 15.88C69.017 15.96 69.4636 16.0733 69.8903 16.22C69.837 16.6467 69.7703 17.08 69.6903 17.52C69.6236 17.9467 69.5236 18.3867 69.3903 18.84H68.8903L68.1303 16.8C67.9703 16.7333 67.7903 16.6933 67.5903 16.68C67.3903 16.6533 67.1836 16.64 66.9703 16.64C66.7303 16.64 66.517 16.6867 66.3303 16.78C66.157 16.86 66.0036 16.9667 65.8703 17.1C65.7503 17.2333 65.657 17.3867 65.5903 17.56C65.5236 17.7333 65.4903 17.9067 65.4903 18.08C65.4903 18.44 65.6036 18.7533 65.8303 19.02C66.0703 19.2733 66.3703 19.5133 66.7303 19.74C67.0903 19.9533 67.4703 20.1667 67.8703 20.38C68.2836 20.5933 68.6703 20.8333 69.0303 21.1C69.3903 21.3667 69.6836 21.68 69.9103 22.04C70.1503 22.3867 70.2703 22.8067 70.2703 23.3C70.2703 23.7533 70.1703 24.16 69.9703 24.52C69.7836 24.88 69.517 25.1867 69.1703 25.44C68.837 25.6933 68.4436 25.8867 67.9903 26.02C67.5503 26.1667 67.077 26.24 66.5703 26.24C65.997 26.24 65.4703 26.1867 64.9903 26.08C64.5103 25.9867 64.0103 25.8467 63.4903 25.66C63.517 25.18 63.577 24.72 63.6703 24.28C63.7636 23.8267 63.8836 23.3933 64.0303 22.98H64.5303L65.4103 25.16C65.557 25.2667 65.7303 25.3267 65.9303 25.34C66.1436 25.3533 66.337 25.36 66.5103 25.36C67.097 25.36 67.5703 25.2 67.9303 24.88C68.2903 24.56 68.4703 24.1733 68.4703 23.72ZM79.7627 24.6C79.5227 25.0667 79.1293 25.46 78.5827 25.78C78.0493 26.0867 77.4227 26.24 76.7027 26.24C75.916 26.24 75.2293 26.12 74.6427 25.88C74.0693 25.6267 73.5893 25.2733 73.2027 24.82C72.816 24.3533 72.5227 23.8 72.3227 23.16C72.136 22.5067 72.0427 21.7867 72.0427 21C72.0427 19.3067 72.456 18.0133 73.2827 17.12C74.1093 16.2133 75.236 15.76 76.6627 15.76C77.316 15.76 77.896 15.82 78.4027 15.94C78.9227 16.0467 79.3627 16.1933 79.7227 16.38C79.6827 16.82 79.6093 17.3133 79.5027 17.86C79.396 18.4067 79.2627 18.86 79.1027 19.22H78.5627L77.7227 16.84C77.6293 16.7733 77.5227 16.7267 77.4027 16.7C77.2827 16.66 77.0827 16.64 76.8027 16.64C75.896 16.64 75.196 16.9733 74.7027 17.64C74.2093 18.2933 73.9627 19.4067 73.9627 20.98C73.9627 21.4867 74.0293 21.98 74.1627 22.46C74.3093 22.94 74.5227 23.3733 74.8027 23.76C75.096 24.1333 75.456 24.4333 75.8827 24.66C76.3227 24.8867 76.8293 25 77.4027 25C77.8693 25 78.276 24.9333 78.6227 24.8C78.9693 24.6667 79.2627 24.5067 79.5027 24.32L79.7627 24.6ZM91.9391 26H87.6191V25.5C87.9391 25.3267 88.3391 25.1667 88.8191 25.02V20.34C88.8191 19.3 88.6724 18.4867 88.3791 17.9C88.0857 17.3 87.5524 17 86.7791 17C86.4324 17 86.1191 17.0667 85.8391 17.2C85.5591 17.32 85.3057 17.48 85.0791 17.68C84.8524 17.88 84.6591 18.1133 84.4991 18.38C84.3391 18.6333 84.2191 18.9 84.1391 19.18V25.02C84.3524 25.0733 84.5524 25.1333 84.7391 25.2C84.9391 25.2667 85.1324 25.3667 85.3191 25.5V26H81.0191V25.5C81.4324 25.2867 81.8724 25.1267 82.3391 25.02V12.36L80.8191 12.2V11.68C81.2057 11.52 81.6524 11.38 82.1591 11.26C82.6791 11.14 83.1724 11.04 83.6391 10.96H84.1391V18.02H84.1591C84.4391 17.3933 84.8391 16.86 85.3591 16.42C85.8924 15.98 86.5324 15.76 87.2791 15.76C87.8124 15.76 88.2857 15.8267 88.6991 15.96C89.1257 16.08 89.4791 16.3 89.7591 16.62C90.0391 16.94 90.2524 17.3733 90.3991 17.92C90.5457 18.4533 90.6191 19.1333 90.6191 19.96V25.02C90.8457 25.0733 91.0724 25.1333 91.2991 25.2C91.5257 25.2667 91.7391 25.3667 91.9391 25.5V26ZM100.477 23.38C100.477 23.6733 100.484 23.9267 100.497 24.14C100.511 24.3533 100.524 24.58 100.537 24.82L101.917 25.02V25.44C101.584 25.6133 101.211 25.7667 100.797 25.9C100.397 26.0333 100.011 26.1333 99.6373 26.2H99.1373C99.004 25.8933 98.924 25.56 98.8973 25.2C98.8707 24.8267 98.8507 24.42 98.8373 23.98H98.7373C98.684 24.2467 98.5773 24.52 98.4173 24.8C98.2707 25.0667 98.0707 25.3067 97.8173 25.52C97.5773 25.7333 97.2907 25.9067 96.9573 26.04C96.624 26.1733 96.244 26.24 95.8173 26.24C95.004 26.24 94.3373 25.9933 93.8173 25.5C93.3107 25.0067 93.0573 24.36 93.0573 23.56C93.0573 22.9467 93.1773 22.4467 93.4173 22.06C93.6707 21.66 94.0373 21.3467 94.5173 21.12C94.9973 20.8933 95.5907 20.7333 96.2973 20.64C97.004 20.5333 97.824 20.4533 98.7573 20.4C98.8107 19.8267 98.824 19.3133 98.7973 18.86C98.784 18.3933 98.7107 18 98.5773 17.68C98.4573 17.3467 98.2707 17.0933 98.0173 16.92C97.7773 16.7333 97.4573 16.64 97.0573 16.64C96.8707 16.64 96.6573 16.6533 96.4173 16.68C96.1907 16.6933 95.964 16.7467 95.7373 16.84L94.7973 19.24H94.2773C94.144 18.84 94.024 18.4267 93.9173 18C93.824 17.5733 93.764 17.1533 93.7373 16.74C94.244 16.4333 94.804 16.1933 95.4173 16.02C96.044 15.8467 96.7373 15.76 97.4973 15.76C98.1773 15.76 98.7173 15.86 99.1173 16.06C99.5307 16.2467 99.844 16.4933 100.057 16.8C100.271 17.1067 100.411 17.4467 100.477 17.82C100.544 18.1933 100.577 18.5667 100.577 18.94C100.577 19.74 100.557 20.5133 100.517 21.26C100.491 21.9933 100.477 22.7 100.477 23.38ZM96.6173 25C96.9507 25 97.244 24.9333 97.4973 24.8C97.7507 24.6667 97.964 24.5067 98.1373 24.32C98.3107 24.1333 98.4507 23.9467 98.5573 23.76C98.664 23.56 98.7373 23.3933 98.7773 23.26V21.16C98.004 21.16 97.3707 21.2 96.8773 21.28C96.384 21.36 95.9973 21.4867 95.7173 21.66C95.4373 21.8333 95.244 22.0533 95.1373 22.32C95.0307 22.5733 94.9773 22.8667 94.9773 23.2C94.9773 23.7733 95.124 24.22 95.4173 24.54C95.7107 24.8467 96.1107 25 96.6173 25ZM108.495 10.96C108.615 10.96 108.755 10.9667 108.915 10.98C109.075 10.9933 109.242 11.0133 109.415 11.04C109.588 11.0533 109.755 11.08 109.915 11.12C110.075 11.1467 110.215 11.18 110.335 11.22C110.295 11.66 110.235 12.0733 110.155 12.46C110.088 12.8333 110.002 13.1733 109.895 13.48H109.395L108.515 11.76C108.128 11.76 107.795 11.8 107.515 11.88C107.248 11.96 107.022 12.1133 106.835 12.34C106.662 12.5667 106.528 12.8933 106.435 13.32C106.355 13.7467 106.315 14.3067 106.315 15V16H108.615V17H106.315V25.02C107.008 25.1 107.648 25.26 108.235 25.5V26H103.195V25.5C103.608 25.26 104.048 25.1 104.515 25.02V17H102.995V16.48C103.462 16.1867 103.968 15.9667 104.515 15.82V15.12C104.515 14.2933 104.615 13.6133 104.815 13.08C105.015 12.5333 105.295 12.1067 105.655 11.8C106.015 11.48 106.435 11.26 106.915 11.14C107.408 11.02 107.935 10.96 108.495 10.96ZM109.296 16.48C109.803 16.16 110.336 15.9333 110.896 15.8V14.1C111.069 13.9533 111.269 13.8267 111.496 13.72C111.736 13.6 111.969 13.4867 112.196 13.38H112.696V16H115.696V17H112.696V22.8C112.696 23.6 112.823 24.1667 113.076 24.5C113.329 24.8333 113.709 25 114.216 25C114.456 25 114.756 24.9867 115.116 24.96C115.476 24.92 115.783 24.8533 116.036 24.76L116.176 25.06C116.069 25.18 115.916 25.3067 115.716 25.44C115.529 25.5733 115.309 25.7 115.056 25.82C114.816 25.94 114.549 26.04 114.256 26.12C113.963 26.2 113.663 26.24 113.356 26.24C112.556 26.24 111.943 26.0133 111.516 25.56C111.103 25.1067 110.896 24.3733 110.896 23.36V17H109.296V16.48ZM18.8 41.8H19.62C19.6733 42.0133 19.72 42.2733 19.76 42.58C19.8133 42.8733 19.8533 43.1933 19.88 43.54C19.92 43.8733 19.9467 44.2067 19.96 44.54C19.9733 44.8733 19.98 45.1733 19.98 45.44C19.5133 45.7333 18.9267 45.94 18.22 46.06C17.5267 46.18 16.8133 46.24 16.08 46.24C14.9733 46.24 13.9667 46.1067 13.06 45.84C12.1667 45.56 11.4 45.1267 10.76 44.54C10.1333 43.94 9.64667 43.1867 9.3 42.28C8.95333 41.36 8.78 40.26 8.78 38.98C8.78 37.7133 8.96667 36.6267 9.34 35.72C9.72667 34.8 10.24 34.0467 10.88 33.46C11.52 32.8733 12.26 32.4467 13.1 32.18C13.9533 31.9 14.8467 31.76 15.78 31.76C16.66 31.76 17.4533 31.8267 18.16 31.96C18.88 32.08 19.4667 32.2467 19.92 32.46C19.92 32.6733 19.9067 32.9467 19.88 33.28C19.8667 33.6133 19.8333 33.9667 19.78 34.34C19.74 34.7 19.6867 35.06 19.62 35.42C19.5667 35.7667 19.5133 36.06 19.46 36.3H18.62L17.52 33.28C17.4 33.2133 17.2067 33.16 16.94 33.12C16.6733 33.08 16.4 33.06 16.12 33.06C15.5733 33.06 15.06 33.1733 14.58 33.4C14.1 33.6133 13.6733 33.96 13.3 34.44C12.9267 34.92 12.6333 35.54 12.42 36.3C12.2067 37.0467 12.1 37.9467 12.1 39C12.1 40.9067 12.48 42.3733 13.24 43.4C14 44.4267 15.0333 44.94 16.34 44.94C16.7133 44.94 17.0267 44.9133 17.28 44.86C17.5467 44.7933 17.7267 44.7067 17.82 44.6L18.8 41.8ZM30.4469 43.1C30.4469 43.3933 30.4469 43.6467 30.4469 43.86C30.4602 44.0733 30.4802 44.3 30.5069 44.54L31.8869 44.74V45.44C31.7269 45.52 31.5069 45.6 31.2269 45.68C30.9602 45.76 30.6735 45.84 30.3669 45.92C30.0735 45.9867 29.7802 46.04 29.4869 46.08C29.1935 46.1333 28.9335 46.1733 28.7069 46.2H28.0269C27.8935 45.8933 27.8135 45.5867 27.7869 45.28C27.7602 44.9733 27.7402 44.6 27.7269 44.16H27.6269C27.5602 44.4267 27.4469 44.6867 27.2869 44.94C27.1269 45.18 26.9202 45.4 26.6669 45.6C26.4269 45.7867 26.1402 45.94 25.8069 46.06C25.4735 46.18 25.1002 46.24 24.6869 46.24C24.2469 46.24 23.8402 46.1733 23.4669 46.04C23.0935 45.9067 22.7669 45.72 22.4869 45.48C22.2069 45.24 21.9869 44.9533 21.8269 44.62C21.6669 44.2733 21.5869 43.8867 21.5869 43.46C21.5869 42.86 21.7002 42.3667 21.9269 41.98C22.1535 41.5933 22.5069 41.28 22.9869 41.04C23.4802 40.7867 24.1069 40.6 24.8669 40.48C25.6402 40.36 26.5735 40.2733 27.6669 40.22C27.7735 39.0733 27.7269 38.2333 27.5269 37.7C27.3269 37.1667 26.8935 36.9 26.2269 36.9C25.8135 36.9 25.4335 36.9667 25.0869 37.1L24.1469 39.5H23.2669C23.1602 39.34 23.0535 39.16 22.9469 38.96C22.8535 38.7467 22.7602 38.5267 22.6669 38.3C22.5869 38.06 22.5135 37.82 22.4469 37.58C22.3935 37.34 22.3535 37.1067 22.3269 36.88C22.8335 36.5333 23.4869 36.26 24.2869 36.06C25.0869 35.86 25.9335 35.76 26.8269 35.76C27.5869 35.76 28.2069 35.8467 28.6869 36.02C29.1669 36.18 29.5402 36.4067 29.8069 36.7C30.0869 36.98 30.2802 37.3133 30.3869 37.7C30.4935 38.0867 30.5469 38.5 30.5469 38.94C30.5469 39.74 30.5269 40.4667 30.4869 41.12C30.4602 41.76 30.4469 42.42 30.4469 43.1ZM25.9469 44.64C26.2269 44.64 26.4669 44.5867 26.6669 44.48C26.8669 44.3733 27.0335 44.2467 27.1669 44.1C27.3135 43.9533 27.4202 43.7933 27.4869 43.62C27.5669 43.4467 27.6269 43.2933 27.6669 43.16V41.16C27.0402 41.1733 26.5269 41.2133 26.1269 41.28C25.7269 41.3467 25.4135 41.46 25.1869 41.62C24.9602 41.7667 24.8002 41.96 24.7069 42.2C24.6269 42.4267 24.5869 42.7067 24.5869 43.04C24.5869 43.5467 24.7069 43.94 24.9469 44.22C25.1869 44.5 25.5202 44.64 25.9469 44.64ZM37.9797 38.3C37.8197 38.38 37.633 38.5133 37.4197 38.7C37.2064 38.8867 37.013 39.1933 36.8397 39.62V44.74C37.1064 44.7667 37.373 44.82 37.6397 44.9C37.9064 44.9667 38.173 45.0733 38.4397 45.22V46H32.6397V45.22C32.8797 45.0867 33.1064 44.9867 33.3197 44.92C33.533 44.8533 33.7464 44.7933 33.9597 44.74V37.42L32.6397 37.26V36.48C32.853 36.3867 33.113 36.3 33.4197 36.22C33.7397 36.14 34.0664 36.0733 34.3997 36.02C34.733 35.9533 35.053 35.9 35.3597 35.86C35.6797 35.82 35.9464 35.7867 36.1597 35.76H36.8397V38.42H36.9197C37.0264 38.1267 37.1797 37.82 37.3797 37.5C37.593 37.18 37.8397 36.8867 38.1197 36.62C38.3997 36.3533 38.7064 36.14 39.0397 35.98C39.373 35.82 39.7197 35.7467 40.0797 35.76C40.2264 35.9467 40.353 36.2133 40.4597 36.56C40.5664 36.8933 40.653 37.2133 40.7197 37.52V38.3H37.9797ZM46.933 46H41.413V45.22C41.853 45.0067 42.293 44.8467 42.733 44.74V32.62L41.213 32.46V31.68C41.3863 31.6 41.6263 31.52 41.933 31.44C42.2396 31.36 42.5663 31.2933 42.913 31.24C43.273 31.1733 43.6263 31.12 43.973 31.08C44.333 31.0267 44.653 30.9867 44.933 30.96H45.613V44.74C46.053 44.8467 46.493 45.0067 46.933 45.22V46ZM53.5736 46H48.0536V45.22C48.2536 45.1133 48.4603 45.0267 48.6736 44.96C48.8869 44.88 49.1203 44.8067 49.3736 44.74V37.42L48.0536 37.26V36.48C48.2536 36.4 48.5003 36.32 48.7936 36.24C49.1003 36.16 49.4203 36.0933 49.7536 36.04C50.0869 35.9733 50.4136 35.92 50.7336 35.88C51.0536 35.8267 51.3336 35.7867 51.5736 35.76H52.2536V44.74C52.5203 44.8067 52.7603 44.88 52.9736 44.96C53.1869 45.0267 53.3869 45.1133 53.5736 45.22V46ZM49.0336 32.72C49.0336 32.2533 49.1936 31.8867 49.5136 31.62C49.8336 31.3533 50.2469 31.22 50.7536 31.22C51.2603 31.22 51.6736 31.3533 51.9936 31.62C52.3136 31.8867 52.4736 32.2533 52.4736 32.72C52.4736 33.1733 52.3136 33.5333 51.9936 33.8C51.6736 34.0667 51.2603 34.2 50.7536 34.2C50.2469 34.2 49.8336 34.0667 49.5136 33.8C49.1936 33.5333 49.0336 33.1733 49.0336 32.72ZM59.8342 43.82C59.8342 43.4733 59.7076 43.1733 59.4542 42.92C59.2142 42.6667 58.9076 42.4333 58.5342 42.22C58.1742 42.0067 57.7742 41.7933 57.3342 41.58C56.9076 41.3667 56.5076 41.12 56.1342 40.84C55.7742 40.5467 55.4676 40.2067 55.2142 39.82C54.9742 39.4333 54.8542 38.96 54.8542 38.4C54.8542 38 54.9476 37.64 55.1342 37.32C55.3209 36.9867 55.5742 36.7067 55.8942 36.48C56.2142 36.2533 56.5942 36.08 57.0342 35.96C57.4876 35.8267 57.9742 35.76 58.4942 35.76C59.2142 35.76 59.8809 35.82 60.4942 35.94C61.1209 36.0467 61.6676 36.2 62.1342 36.4C62.0809 36.8267 61.9742 37.2867 61.8142 37.78C61.6542 38.26 61.5009 38.7 61.3542 39.1H60.6742L59.8342 37.06C59.6742 36.9933 59.5076 36.9533 59.3342 36.94C59.1609 36.9133 58.9676 36.9 58.7542 36.9C58.3542 36.9 58.0476 37.02 57.8342 37.26C57.6342 37.4867 57.5342 37.7467 57.5342 38.04C57.5342 38.3733 57.6542 38.6667 57.8942 38.92C58.1476 39.16 58.4542 39.3867 58.8142 39.6C59.1876 39.8133 59.5876 40.0267 60.0142 40.24C60.4542 40.4533 60.8542 40.7 61.2142 40.98C61.5876 41.2467 61.8942 41.5667 62.1342 41.94C62.3876 42.3133 62.5142 42.76 62.5142 43.28C62.5142 44.2 62.1409 44.9267 61.3942 45.46C60.6476 45.98 59.6476 46.24 58.3942 46.24C57.7542 46.24 57.0942 46.1733 56.4142 46.04C55.7342 45.9067 55.1476 45.72 54.6542 45.48C54.6809 45 54.7942 44.5133 54.9942 44.02C55.1942 43.5267 55.4076 43.0867 55.6342 42.7H56.3142L57.2942 44.88C57.4409 44.9867 57.6009 45.0533 57.7742 45.08C57.9609 45.0933 58.1342 45.1 58.2942 45.1C58.6809 45.1 59.0342 44.9867 59.3542 44.76C59.6742 44.5333 59.8342 44.22 59.8342 43.82ZM63.2772 36.48C63.7839 36.16 64.3172 35.9333 64.8772 35.8V34.18C64.9572 34.1 65.0905 34.0267 65.2772 33.96C65.4772 33.88 65.6839 33.8133 65.8972 33.76C66.1239 33.6933 66.3439 33.6333 66.5572 33.58C66.7705 33.5267 66.9439 33.4867 67.0772 33.46H67.7572V36H70.3972V37.26H67.7572V42.44C67.7572 43.2667 67.8572 43.84 68.0572 44.16C68.2705 44.48 68.6172 44.64 69.0972 44.64C69.3372 44.64 69.6039 44.6267 69.8972 44.6C70.2039 44.56 70.4839 44.4933 70.7372 44.4L70.8772 45.06C70.7572 45.18 70.5772 45.3067 70.3372 45.44C70.1105 45.5733 69.8439 45.7 69.5372 45.82C69.2439 45.94 68.9172 46.04 68.5572 46.12C68.2105 46.2 67.8439 46.24 67.4572 46.24C66.5905 46.24 65.9439 46.0133 65.5172 45.56C65.0905 45.1067 64.8772 44.3733 64.8772 43.36V37.26H63.2772V36.48ZM80.8255 44.32C80.7188 44.5467 80.5455 44.78 80.3055 45.02C80.0788 45.2467 79.7921 45.4533 79.4455 45.64C79.1121 45.8133 78.7188 45.9533 78.2655 46.06C77.8255 46.18 77.3455 46.24 76.8255 46.24C75.9988 46.24 75.2655 46.12 74.6255 45.88C73.9855 45.6267 73.4521 45.2733 73.0255 44.82C72.5988 44.3533 72.2721 43.8 72.0455 43.16C71.8321 42.52 71.7255 41.8 71.7255 41C71.7255 39.2933 72.1721 37.9933 73.0655 37.1C73.9588 36.2067 75.1988 35.76 76.7855 35.76C77.4655 35.76 78.0988 35.8533 78.6855 36.04C79.2855 36.2267 79.7788 36.5333 80.1655 36.96C80.5655 37.3867 80.8388 37.9467 80.9855 38.64C81.1455 39.3333 81.1388 40.18 80.9655 41.18H74.8255C74.8388 42.2333 75.1055 43.0733 75.6255 43.7C76.1588 44.3267 76.9388 44.64 77.9655 44.64C78.4055 44.64 78.8588 44.5733 79.3255 44.44C79.8055 44.3067 80.1788 44.1333 80.4455 43.92L80.8255 44.32ZM76.7055 36.9C76.4388 36.9 76.1988 36.9467 75.9855 37.04C75.7855 37.1333 75.6055 37.3067 75.4455 37.56C75.2988 37.8 75.1788 38.1333 75.0855 38.56C74.9921 38.9733 74.9255 39.5 74.8855 40.14H78.1055C78.1988 39.1 78.1388 38.3 77.9255 37.74C77.7121 37.18 77.3055 36.9 76.7055 36.9ZM94.4877 46H89.1877V45.22C89.361 45.1267 89.5277 45.0467 89.6877 44.98C89.861 44.9 90.061 44.82 90.2877 44.74V40.04C90.2877 39.2 90.1677 38.5467 89.9277 38.08C89.6877 37.6 89.261 37.36 88.6477 37.36C88.141 37.36 87.701 37.5267 87.3277 37.86C86.9677 38.18 86.6943 38.62 86.5077 39.18V44.74C86.721 44.7933 86.9077 44.86 87.0677 44.94C87.241 45.0067 87.421 45.1 87.6077 45.22V46H82.3077V45.22C82.641 45.0467 83.081 44.8867 83.6277 44.74V37.42L82.3077 37.26V36.48C82.481 36.4 82.7077 36.3267 82.9877 36.26C83.2677 36.18 83.5677 36.1067 83.8877 36.04C84.221 35.9733 84.5543 35.92 84.8877 35.88C85.2343 35.8267 85.5477 35.7867 85.8277 35.76H86.5077V37.82H86.5277C86.8077 37.26 87.2277 36.78 87.7877 36.38C88.3477 35.9667 89.0277 35.76 89.8277 35.76C90.3477 35.76 90.8143 35.8267 91.2277 35.96C91.641 36.08 91.9877 36.3 92.2677 36.62C92.561 36.94 92.781 37.3733 92.9277 37.92C93.0877 38.4533 93.1677 39.1333 93.1677 39.96V44.74C93.701 44.8333 94.141 44.9933 94.4877 45.22V46Z" fill="white"/>
<path d="M10.187 57.108L8.387 53.067C8.213 53.007 8.054 52.935 7.91 52.851V52.5H10.277V52.842C10.199 52.884 10.118 52.926 10.034 52.968C9.956 53.004 9.866 53.037 9.764 53.067L10.601 55.371L10.772 55.974H10.79L10.934 55.362L11.699 53.067C11.603 53.043 11.513 53.013 11.429 52.977C11.351 52.941 11.276 52.899 11.204 52.851V52.5H12.941V52.851C12.881 52.893 12.806 52.932 12.716 52.968C12.632 53.004 12.536 53.037 12.428 53.067L10.853 57L10.187 57.108ZM12.9987 54.75C12.9987 54.384 13.0527 54.057 13.1607 53.769C13.2747 53.475 13.4337 53.226 13.6377 53.022C13.8477 52.818 14.0997 52.662 14.3937 52.554C14.6877 52.446 15.0207 52.392 15.3927 52.392C15.8127 52.392 16.1727 52.452 16.4727 52.572C16.7787 52.686 17.0277 52.848 17.2197 53.058C17.4177 53.262 17.5617 53.511 17.6517 53.805C17.7417 54.093 17.7867 54.408 17.7867 54.75C17.7867 55.116 17.7327 55.446 17.6247 55.74C17.5167 56.028 17.3577 56.274 17.1477 56.478C16.9437 56.682 16.6917 56.838 16.3917 56.946C16.0977 57.054 15.7647 57.108 15.3927 57.108C14.9847 57.108 14.6307 57.051 14.3307 56.937C14.0307 56.817 13.7817 56.655 13.5837 56.451C13.3857 56.241 13.2387 55.992 13.1427 55.704C13.0467 55.41 12.9987 55.092 12.9987 54.75ZM14.3937 54.75C14.3937 55.02 14.4087 55.269 14.4387 55.497C14.4747 55.719 14.5347 55.908 14.6187 56.064C14.7027 56.22 14.8167 56.343 14.9607 56.433C15.1047 56.517 15.2907 56.559 15.5187 56.559C15.6507 56.559 15.7707 56.529 15.8787 56.469C15.9867 56.403 16.0797 56.301 16.1577 56.163C16.2357 56.019 16.2927 55.833 16.3287 55.605C16.3707 55.371 16.3917 55.086 16.3917 54.75C16.3917 54.474 16.3737 54.225 16.3377 54.003C16.3077 53.781 16.2507 53.592 16.1667 53.436C16.0887 53.28 15.9807 53.16 15.8427 53.076C15.7047 52.986 15.5307 52.941 15.3207 52.941C15.1647 52.941 15.0297 52.974 14.9157 53.04C14.8017 53.1 14.7057 53.202 14.6277 53.346C14.5497 53.484 14.4897 53.67 14.4477 53.904C14.4117 54.132 14.3937 54.414 14.3937 54.75ZM23.7515 57H21.3665V56.649C21.4445 56.607 21.5195 56.571 21.5915 56.541C21.6695 56.505 21.7595 56.469 21.8615 56.433V54.318C21.8615 53.94 21.8075 53.646 21.6995 53.436C21.5915 53.22 21.3995 53.112 21.1235 53.112C20.8955 53.112 20.6975 53.187 20.5295 53.337C20.3675 53.481 20.2445 53.679 20.1605 53.931V56.433C20.2565 56.457 20.3405 56.487 20.4125 56.523C20.4905 56.553 20.5715 56.595 20.6555 56.649V57H18.2705V56.649C18.4205 56.571 18.6185 56.499 18.8645 56.433V53.139L18.2705 53.067V52.716C18.3485 52.68 18.4505 52.647 18.5765 52.617C18.7025 52.581 18.8375 52.548 18.9815 52.518C19.1315 52.488 19.2815 52.464 19.4315 52.446C19.5875 52.422 19.7285 52.404 19.8545 52.392H20.1605V53.319H20.1695C20.2955 53.067 20.4845 52.851 20.7365 52.671C20.9885 52.485 21.2945 52.392 21.6545 52.392C21.8885 52.392 22.0985 52.422 22.2845 52.482C22.4705 52.536 22.6265 52.635 22.7525 52.779C22.8845 52.923 22.9835 53.118 23.0495 53.364C23.1215 53.604 23.1575 53.91 23.1575 54.282V56.433C23.3975 56.475 23.5955 56.547 23.7515 56.649V57ZM30.4753 57H27.3613V56.613C27.5113 56.547 27.6613 56.49 27.8113 56.442C27.9673 56.388 28.1233 56.343 28.2793 56.307V52.176L28.3153 51.645C28.1473 51.699 27.9733 51.735 27.7933 51.753C27.6133 51.771 27.4273 51.777 27.2353 51.771L27.1903 51.438C27.5083 51.354 27.8533 51.24 28.2253 51.096C28.6033 50.952 28.9513 50.784 29.2693 50.592H29.5753V56.307C29.7253 56.343 29.8753 56.388 30.0253 56.442C30.1753 56.49 30.3253 56.547 30.4753 56.613V57ZM31.6851 55.587C31.6851 55.167 31.8201 54.816 32.0901 54.534C32.3601 54.246 32.7141 54.033 33.1521 53.895C32.7921 53.691 32.5011 53.451 32.2791 53.175C32.0571 52.893 31.9461 52.569 31.9461 52.203C31.9461 51.969 31.9911 51.756 32.0811 51.564C32.1771 51.366 32.3121 51.195 32.4861 51.051C32.6601 50.907 32.8701 50.796 33.1161 50.718C33.3681 50.634 33.6501 50.592 33.9621 50.592C34.2501 50.592 34.5111 50.628 34.7451 50.7C34.9851 50.772 35.1891 50.871 35.3571 50.997C35.5251 51.123 35.6541 51.276 35.7441 51.456C35.8341 51.636 35.8791 51.834 35.8791 52.05C35.8791 52.41 35.7591 52.722 35.5191 52.986C35.2791 53.25 34.9761 53.439 34.6101 53.553C34.8681 53.691 35.0901 53.829 35.2761 53.967C35.4681 54.105 35.6271 54.249 35.7531 54.399C35.8791 54.549 35.9721 54.708 36.0321 54.876C36.0981 55.044 36.1311 55.227 36.1311 55.425C36.1311 55.659 36.0801 55.878 35.9781 56.082C35.8821 56.286 35.7381 56.466 35.5461 56.622C35.3601 56.772 35.1261 56.892 34.8441 56.982C34.5681 57.066 34.2471 57.108 33.8811 57.108C33.5451 57.108 33.2391 57.069 32.9631 56.991C32.6931 56.913 32.4621 56.808 32.2701 56.676C32.0841 56.538 31.9401 56.376 31.8381 56.19C31.7361 56.004 31.6851 55.803 31.6851 55.587ZM34.8531 55.686C34.8531 55.482 34.8141 55.308 34.7361 55.164C34.6641 55.02 34.5651 54.891 34.4391 54.777C34.3191 54.657 34.1751 54.549 34.0071 54.453C33.8451 54.351 33.6741 54.246 33.4941 54.138C33.2841 54.3 33.1401 54.492 33.0621 54.714C32.9841 54.936 32.9451 55.152 32.9451 55.362C32.9451 55.506 32.9631 55.65 32.9991 55.794C33.0351 55.938 33.0921 56.067 33.1701 56.181C33.2541 56.289 33.3591 56.379 33.4851 56.451C33.6111 56.523 33.7671 56.559 33.9531 56.559C34.1031 56.559 34.2321 56.535 34.3401 56.487C34.4541 56.439 34.5471 56.376 34.6191 56.298C34.6971 56.214 34.7541 56.121 34.7901 56.019C34.8321 55.911 34.8531 55.8 34.8531 55.686ZM33.1701 52.014C33.1701 52.302 33.2691 52.557 33.4671 52.779C33.6711 52.995 33.9321 53.184 34.2501 53.346C34.4181 53.19 34.5351 53.019 34.6011 52.833C34.6731 52.641 34.7091 52.422 34.7091 52.176C34.7091 51.828 34.6371 51.57 34.4931 51.402C34.3551 51.228 34.1721 51.141 33.9441 51.141C33.6741 51.141 33.4761 51.225 33.3501 51.393C33.2301 51.561 33.1701 51.768 33.1701 52.014ZM37.512 52.671H37.206C37.176 52.545 37.146 52.392 37.116 52.212C37.086 52.026 37.056 51.84 37.026 51.654C37.002 51.468 36.981 51.291 36.963 51.123C36.945 50.949 36.936 50.808 36.936 50.7H41.148V51.123C40.824 51.627 40.551 52.101 40.329 52.545C40.107 52.989 39.921 53.439 39.771 53.895C39.621 54.351 39.495 54.828 39.393 55.326C39.297 55.824 39.213 56.382 39.141 57H37.863C38.079 56.13 38.358 55.302 38.7 54.516C39.042 53.73 39.447 52.938 39.915 52.14L40.248 51.708L39.798 51.753H37.863L37.512 52.671ZM42.6009 52.671H42.2949C42.2649 52.545 42.2349 52.392 42.2049 52.212C42.1749 52.026 42.1449 51.84 42.1149 51.654C42.0909 51.468 42.0699 51.291 42.0519 51.123C42.0339 50.949 42.0249 50.808 42.0249 50.7H46.2369V51.123C45.9129 51.627 45.6399 52.101 45.4179 52.545C45.1959 52.989 45.0099 53.439 44.8599 53.895C44.7099 54.351 44.5839 54.828 44.4819 55.326C44.3859 55.824 44.3019 56.382 44.2299 57H42.9519C43.1679 56.13 43.4469 55.302 43.7889 54.516C44.1309 53.73 44.5359 52.938 45.0039 52.14L45.3369 51.708L44.8869 51.753H42.9519L42.6009 52.671Z" fill="white"/>
</svg>
